<svg width="55" height="56" viewBox="0 0 55 56" fill="none" xmlns="http://www.w3.org/2000/svg">
<g filter="url(#filter0_dd_151_5706)">
<rect x="3.5" y="3" width="48" height="48" rx="10" fill="black"/>
<rect width="24" height="24" transform="translate(15.5 15)" fill="black"/>
<path d="M36.7808 33.424C36.433 34.2275 36.0213 34.9672 35.5442 35.6472C34.894 36.5743 34.3616 37.216 33.9513 37.5724C33.3153 38.1573 32.6338 38.4568 31.9041 38.4739C31.3802 38.4739 30.7485 38.3248 30.013 38.0224C29.2752 37.7214 28.5972 37.5724 27.9772 37.5724C27.327 37.5724 26.6296 37.7214 25.8837 38.0224C25.1366 38.3248 24.5348 38.4824 24.0747 38.498C23.3749 38.5278 22.6774 38.2197 21.9812 37.5724C21.5368 37.1848 20.981 36.5204 20.3151 35.5791C19.6007 34.5739 19.0134 33.4084 18.5533 32.0795C18.0605 30.6442 17.8135 29.2543 17.8135 27.9087C17.8135 26.3673 18.1465 25.0379 18.8137 23.9238C19.338 23.029 20.0355 22.3231 20.9084 21.8049C21.7814 21.2867 22.7247 21.0227 23.7405 21.0058C24.2963 21.0058 25.0252 21.1777 25.931 21.5156C26.8342 21.8546 27.4141 22.0265 27.6684 22.0265C27.8585 22.0265 28.5028 21.8255 29.5949 21.4247C30.6278 21.0531 31.4995 20.8992 32.2136 20.9598C34.1487 21.1159 35.6024 21.8788 36.5693 23.253C34.8386 24.3016 33.9826 25.7703 33.9996 27.6544C34.0152 29.122 34.5476 30.3432 35.5939 31.3129C36.0681 31.7629 36.5977 32.1107 37.1868 32.3578C37.0591 32.7283 36.9242 33.0832 36.7808 33.424ZM32.3428 15.9601C32.3428 17.1104 31.9226 18.1844 31.0849 19.1785C30.0741 20.3602 28.8514 21.0431 27.5256 20.9354C27.5087 20.7974 27.4989 20.6521 27.4989 20.4995C27.4989 19.3953 27.9796 18.2135 28.8333 17.2472C29.2595 16.758 29.8015 16.3512 30.4588 16.0267C31.1147 15.7071 31.7352 15.5303 32.3187 15.5C32.3357 15.6538 32.3428 15.8076 32.3428 15.9601V15.9601Z" fill="white"/>
</g>
<defs>
<filter id="filter0_dd_151_5706" x="0.5" y="0" width="54" height="56" filterUnits="userSpaceOnUse" color-interpolation-filters="sRGB">
<feFlood flood-opacity="0" result="BackgroundImageFix"/>
<feColorMatrix in="SourceAlpha" type="matrix" values="0 0 0 0 0 0 0 0 0 0 0 0 0 0 0 0 0 0 127 0" result="hardAlpha"/>
<feOffset dy="2"/>
<feGaussianBlur stdDeviation="1.5"/>
<feColorMatrix type="matrix" values="0 0 0 0 0 0 0 0 0 0 0 0 0 0 0 0 0 0 0.168 0"/>
<feBlend mode="normal" in2="BackgroundImageFix" result="effect1_dropShadow_151_5706"/>
<feColorMatrix in="SourceAlpha" type="matrix" values="0 0 0 0 0 0 0 0 0 0 0 0 0 0 0 0 0 0 127 0" result="hardAlpha"/>
<feOffset/>
<feGaussianBlur stdDeviation="1.5"/>
<feColorMatrix type="matrix" values="0 0 0 0 0 0 0 0 0 0 0 0 0 0 0 0 0 0 0.084 0"/>
<feBlend mode="normal" in2="effect1_dropShadow_151_5706" result="effect2_dropShadow_151_5706"/>
<feBlend mode="normal" in="SourceGraphic" in2="effect2_dropShadow_151_5706" result="shape"/>
</filter>
</defs>
</svg>
