<svg width="130" height="171" viewBox="0 0 130 171" fill="none" xmlns="http://www.w3.org/2000/svg">
<path d="M-153.284 131.094C-150.991 100.903 -139.074 72.2442 -119.286 49.3285C-99.497 26.4127 -72.8796 10.4485 -43.3452 3.78215C-13.8107 -2.88425 17.0833 0.0986076 44.7968 12.2924C72.5103 24.4862 95.5817 45.2478 110.621 71.5263C125.66 97.8047 131.873 128.214 128.347 158.286C124.822 188.357 111.744 216.505 91.0346 238.593C70.3255 260.68 43.0776 275.542 13.2953 280.996C-16.487 286.449 -47.2333 282.205 -74.425 268.889L-60.9203 241.313C-39.6291 251.74 -15.5546 255.063 7.76508 250.793C31.0848 246.523 52.42 234.886 68.6353 217.591C84.8506 200.296 95.0909 178.257 97.8514 154.71C100.612 131.164 95.7468 107.354 83.9713 86.7775C72.1957 66.2013 54.1307 49.9449 32.4309 40.3971C10.7311 30.8493 -13.459 28.5137 -36.5847 33.7335C-59.7103 38.9533 -80.5518 51.4533 -96.0465 69.3965C-111.541 87.3396 -120.872 109.78 -122.667 133.419L-153.284 131.094Z" fill="#91C8E4"/>
</svg>
