<svg width="167" height="95" viewBox="0 0 167 95" fill="none" xmlns="http://www.w3.org/2000/svg">
<path d="M157.842 -187.397C187.935 -184.059 216.163 -171.156 238.379 -150.584C260.595 -130.013 275.626 -102.858 281.265 -73.1099C286.903 -43.3621 282.85 -12.5901 269.703 14.6839C256.555 41.9578 235.006 64.2954 208.222 78.414C181.438 92.5325 150.831 97.6875 120.9 93.1214C90.9688 88.5552 63.2915 74.5087 41.9354 53.0461C20.5793 31.5835 6.67074 3.83662 2.25358 -26.1169C-2.16358 -56.0705 3.14364 -86.651 17.3953 -113.365L44.486 -98.9118C33.3268 -77.9949 29.1713 -54.0502 32.6299 -30.5964C36.0886 -7.14267 46.9791 14.5832 63.701 31.3886C80.4229 48.1939 102.094 59.1924 125.531 62.7677C148.967 66.343 172.932 62.3066 193.904 51.2517C214.876 40.1968 231.749 22.7064 242.044 1.35078C252.338 -20.0048 255.512 -44.0994 251.097 -67.3922C246.682 -90.6849 234.912 -111.947 217.517 -128.055C200.122 -144.163 178.019 -154.266 154.456 -156.88L157.842 -187.397Z" fill="#91C8E4"/>
</svg>
