<svg width="55" height="56" viewBox="0 0 55 56" fill="none" xmlns="http://www.w3.org/2000/svg">
<g filter="url(#filter0_dd_151_5698)">
<rect x="3.5" y="3" width="48" height="48" rx="10" fill="white"/>
<rect width="24" height="24" transform="translate(15.5 15)" fill="white"/>
<path fill-rule="evenodd" clip-rule="evenodd" d="M38.54 27.2615C38.54 26.446 38.4668 25.6619 38.3309 24.9092H27.5V29.3576H33.6891C33.4225 30.7951 32.6123 32.013 31.3943 32.8285V35.714H35.1109C37.2855 33.7119 38.54 30.7637 38.54 27.2615Z" fill="#4285F4"/>
<path fill-rule="evenodd" clip-rule="evenodd" d="M27.4995 38.4998C30.6045 38.4998 33.2077 37.47 35.1104 35.7137L31.3938 32.8282C30.364 33.5182 29.0467 33.9259 27.4995 33.9259C24.5042 33.9259 21.969 31.903 21.0647 29.1848H17.2227V32.1644C19.1149 35.9228 23.004 38.4998 27.4995 38.4998Z" fill="#34A853"/>
<path fill-rule="evenodd" clip-rule="evenodd" d="M21.0652 29.185C20.8352 28.495 20.7045 27.7579 20.7045 27C20.7045 26.242 20.8352 25.505 21.0652 24.815V21.8354H17.2232C16.4443 23.3879 16 25.1443 16 27C16 28.8557 16.4443 30.612 17.2232 32.1645L21.0652 29.185Z" fill="#FBBC05"/>
<path fill-rule="evenodd" clip-rule="evenodd" d="M27.4995 20.0739C29.1879 20.0739 30.7038 20.6541 31.8956 21.7936L35.194 18.4952C33.2024 16.6395 30.5992 15.5 27.4995 15.5C23.004 15.5 19.1149 18.077 17.2227 21.8355L21.0647 24.815C21.969 22.0968 24.5042 20.0739 27.4995 20.0739Z" fill="#EA4335"/>
</g>
<defs>
<filter id="filter0_dd_151_5698" x="0.5" y="0" width="54" height="56" filterUnits="userSpaceOnUse" color-interpolation-filters="sRGB">
<feFlood flood-opacity="0" result="BackgroundImageFix"/>
<feColorMatrix in="SourceAlpha" type="matrix" values="0 0 0 0 0 0 0 0 0 0 0 0 0 0 0 0 0 0 127 0" result="hardAlpha"/>
<feOffset dy="2"/>
<feGaussianBlur stdDeviation="1.5"/>
<feColorMatrix type="matrix" values="0 0 0 0 0 0 0 0 0 0 0 0 0 0 0 0 0 0 0.168 0"/>
<feBlend mode="normal" in2="BackgroundImageFix" result="effect1_dropShadow_151_5698"/>
<feColorMatrix in="SourceAlpha" type="matrix" values="0 0 0 0 0 0 0 0 0 0 0 0 0 0 0 0 0 0 127 0" result="hardAlpha"/>
<feOffset/>
<feGaussianBlur stdDeviation="1.5"/>
<feColorMatrix type="matrix" values="0 0 0 0 0 0 0 0 0 0 0 0 0 0 0 0 0 0 0.084 0"/>
<feBlend mode="normal" in2="effect1_dropShadow_151_5698" result="effect2_dropShadow_151_5698"/>
<feBlend mode="normal" in="SourceGraphic" in2="effect2_dropShadow_151_5698" result="shape"/>
</filter>
</defs>
</svg>
