<svg width="765" height="628" viewBox="0 0 765 628" fill="none" xmlns="http://www.w3.org/2000/svg">
<path d="M842 551.342H0V551.763H842V551.342Z" fill="#EBEBEB"/>
<path d="M757.631 578.437H701.857V578.858H757.631V578.437Z" fill="#EBEBEB"/>
<path d="M557.775 583.018H543.141V583.439H557.775V583.018Z" fill="#EBEBEB"/>
<path d="M700.173 562.81H667.857V563.231H700.173V562.81Z" fill="#EBEBEB"/>
<path d="M161.075 565.639H88.3428V566.06H161.075V565.639Z" fill="#EBEBEB"/>
<path d="M186.739 565.639H176.079V566.06H186.739V565.639Z" fill="#EBEBEB"/>
<path d="M379.153 572.745H221.396V573.166H379.153V572.745Z" fill="#EBEBEB"/>
<path d="M399.108 476.235H73.9445C71.3972 476.231 68.9557 475.216 67.1561 473.413C65.3565 471.61 64.3457 469.167 64.3457 466.62V9.53144C64.3679 6.99875 65.3884 4.57708 67.1857 2.79244C68.9829 1.0078 71.4117 0.00433864 73.9445 0H399.108C401.658 0 404.104 1.01307 405.907 2.81636C407.711 4.61964 408.724 7.06541 408.724 9.61564V466.62C408.724 469.17 407.711 471.616 405.907 473.419C404.104 475.222 401.658 476.235 399.108 476.235ZM73.9445 0.336801C71.5089 0.341262 69.1745 1.31195 67.4538 3.03579C65.7331 4.75964 64.7667 7.09578 64.7667 9.53144V466.62C64.7667 469.055 65.7331 471.391 67.4538 473.115C69.1745 474.839 71.5089 475.81 73.9445 475.814H399.108C401.545 475.81 403.881 474.84 405.605 473.116C407.328 471.393 408.298 469.057 408.303 466.62V9.53144C408.298 7.09424 407.328 4.75813 405.605 3.03476C403.881 1.3114 401.545 0.341253 399.108 0.336801H73.9445Z" fill="#EBEBEB"/>
<path d="M763.374 476.235H438.194C435.645 476.231 433.202 475.216 431.399 473.414C429.597 471.612 428.583 469.168 428.578 466.62V9.53144C428.605 6.99721 429.629 4.57556 431.429 2.79139C433.229 1.00721 435.659 0.00429132 438.194 0H763.374C765.904 0.00876437 768.328 1.01419 770.122 2.79835C771.916 4.58251 772.934 7.00165 772.956 9.53144V466.62C772.956 469.164 771.948 471.605 770.152 473.407C768.356 475.209 765.919 476.226 763.374 476.235ZM438.194 0.336801C435.757 0.341253 433.42 1.3114 431.697 3.03476C429.974 4.75813 429.004 7.09424 428.999 9.53144V466.62C429.004 469.057 429.974 471.393 431.697 473.116C433.42 474.84 435.757 475.81 438.194 475.814H763.374C765.811 475.81 768.147 474.84 769.871 473.116C771.594 471.393 772.564 469.057 772.569 466.62V9.53144C772.564 7.09424 771.594 4.75813 769.871 3.03476C768.147 1.3114 765.811 0.341253 763.374 0.336801H438.194Z" fill="#EBEBEB"/>
<path d="M408.1 200.194H169.006V550.752H408.1V200.194Z" fill="#F0F0F0"/>
<path d="M399.647 211.224H177.443V275.974H399.647V211.224Z" fill="#E0E0E0"/>
<path d="M190.073 221.698H177.443V275.957H190.073V221.698Z" fill="#EBEBEB"/>
<path d="M251.118 221.698H238.488V275.957H251.118V221.698Z" fill="#EBEBEB"/>
<path d="M320.402 220.336L307.955 222.481L317.172 275.951L329.618 273.806L320.402 220.336Z" fill="#EBEBEB"/>
<path d="M205.718 228.856H193.088V275.974H205.718V228.856Z" fill="#EBEBEB"/>
<path d="M234.733 228.856H222.103V275.974H234.733V228.856Z" fill="#EBEBEB"/>
<path d="M307.97 228.856H295.34V275.974H307.97V228.856Z" fill="#EBEBEB"/>
<path d="M267.707 227.221L255.378 229.961L265.6 275.957L277.929 273.217L267.707 227.221Z" fill="#EBEBEB"/>
<path d="M216.629 219.004H210.314V275.957H216.629V219.004Z" fill="#EBEBEB"/>
<path d="M291.703 219.004H285.388V275.957H291.703V219.004Z" fill="#EBEBEB"/>
<path d="M177.46 350.979H399.664V286.229H177.46V350.979Z" fill="#E0E0E0"/>
<path d="M387.016 350.962H399.646V296.704H387.016V350.962Z" fill="#EBEBEB"/>
<path d="M325.989 350.962H338.619V296.704H325.989V350.962Z" fill="#EBEBEB"/>
<path d="M247.493 348.806L259.939 350.952L269.156 297.482L256.71 295.336L247.493 348.806Z" fill="#EBEBEB"/>
<path d="M371.373 350.979H384.003V303.861H371.373V350.979Z" fill="#EBEBEB"/>
<path d="M342.374 350.979H355.004V303.861H342.374V350.979Z" fill="#EBEBEB"/>
<path d="M269.137 350.979H281.767V303.861H269.137V350.979Z" fill="#EBEBEB"/>
<path d="M299.218 348.226L311.547 350.967L321.769 304.97L309.44 302.23L299.218 348.226Z" fill="#EBEBEB"/>
<path d="M360.46 350.962H366.775V294.01H360.46V350.962Z" fill="#EBEBEB"/>
<path d="M285.405 350.962H291.72V294.01H285.405V350.962Z" fill="#EBEBEB"/>
<path d="M190.073 296.704H177.443V350.962H190.073V296.704Z" fill="#EBEBEB"/>
<path d="M205.718 303.844H193.088V350.962H205.718V303.844Z" fill="#EBEBEB"/>
<path d="M234.733 303.844H222.103V350.962H234.733V303.844Z" fill="#EBEBEB"/>
<path d="M216.629 294.01H210.314V350.962H216.629V294.01Z" fill="#EBEBEB"/>
<path d="M399.647 361.218H177.443V425.968H399.647V361.218Z" fill="#E0E0E0"/>
<path d="M317.619 371.692H304.989V425.951H317.619V371.692Z" fill="#EBEBEB"/>
<path d="M386.912 370.326L374.466 372.471L383.682 425.941L396.129 423.796L386.912 370.326Z" fill="#EBEBEB"/>
<path d="M272.219 378.849H259.589V425.968H272.219V378.849Z" fill="#EBEBEB"/>
<path d="M301.234 378.849H288.604V425.968H301.234V378.849Z" fill="#EBEBEB"/>
<path d="M374.471 378.849H361.841V425.968H374.471V378.849Z" fill="#EBEBEB"/>
<path d="M334.214 377.216L321.885 379.957L332.107 425.953L344.436 423.213L334.214 377.216Z" fill="#EBEBEB"/>
<path d="M283.131 368.998H276.816V425.951H283.131V368.998Z" fill="#EBEBEB"/>
<path d="M358.204 368.998H351.889V425.951H358.204V368.998Z" fill="#EBEBEB"/>
<path d="M241.69 370.338L229.243 372.484L238.46 425.954L250.906 423.808L241.69 370.338Z" fill="#EBEBEB"/>
<path d="M229.243 378.849H216.613V425.968H229.243V378.849Z" fill="#EBEBEB"/>
<path d="M188.992 377.216L176.663 379.956L186.885 425.952L199.215 423.212L188.992 377.216Z" fill="#EBEBEB"/>
<path d="M212.993 368.998H206.678V425.951H212.993V368.998Z" fill="#EBEBEB"/>
<path d="M127.748 551.662H169.006L169.006 200.194H127.748L127.748 551.662Z" fill="#E0E0E0"/>
<path d="M548.041 542.484H512.997L531.42 392.372C531.862 389.236 533.403 386.358 535.768 384.252C538.134 382.145 541.17 380.947 544.336 380.87H697.176L674.762 542.416L548.041 542.484Z" fill="#F5F5F5"/>
<path d="M659.185 542.484H694.229L712.668 392.372C712.893 390.929 712.799 389.454 712.391 388.052C711.983 386.65 711.272 385.354 710.308 384.257C709.344 383.16 708.151 382.288 706.813 381.702C705.475 381.117 704.024 380.833 702.564 380.87H690.524C687.363 380.967 684.338 382.172 681.976 384.275C679.615 386.378 678.068 389.244 677.608 392.372L659.185 542.484Z" fill="#F0F0F0"/>
<path d="M646.285 542.248L652.634 469.668C652.768 468.093 653.438 466.612 654.532 465.472C655.626 464.332 657.078 463.602 658.646 463.403L661.256 463.066C663.363 462.803 665.315 461.822 666.784 460.288C668.253 458.755 669.149 456.763 669.322 454.646L670.484 441.41C670.599 440.127 670.445 438.834 670.032 437.613C669.62 436.393 668.957 435.272 668.088 434.321C667.218 433.371 666.16 432.612 664.981 432.093C663.802 431.574 662.527 431.306 661.239 431.306H719.809C721.097 431.306 722.371 431.574 723.55 432.093C724.729 432.612 725.788 433.371 726.657 434.321C727.527 435.272 728.189 436.393 728.602 437.613C729.014 438.834 729.168 440.127 729.054 441.41L727.892 454.646C727.719 456.763 726.822 458.755 725.353 460.288C723.884 461.822 721.932 462.803 719.825 463.066L717.215 463.403C715.649 463.605 714.198 464.336 713.105 465.476C712.011 466.615 711.34 468.094 711.203 469.668L704.855 542.248C704.628 544.799 703.454 547.172 701.566 548.902C699.678 550.631 697.21 551.592 694.65 551.594H636.08C638.641 551.592 641.108 550.631 642.997 548.902C644.885 547.172 646.058 544.799 646.285 542.248Z" fill="#E6E6E6"/>
<path d="M485.093 451.565C484.629 446.055 482.113 440.921 478.043 437.178C473.973 433.436 468.646 431.358 463.117 431.357H514.109C519.623 431.379 524.929 433.466 528.981 437.207C533.033 440.947 535.538 446.07 536.001 451.565L541.053 509.09H490.129L485.093 451.565Z" fill="#E6E6E6"/>
<path d="M440.467 431.424H463.1C468.629 431.426 473.956 433.503 478.026 437.246C482.096 440.988 484.612 446.123 485.077 451.632L490.129 509.158H611.579L616.631 451.632C617.09 446.136 619.593 441.011 623.646 437.27C627.699 433.529 633.007 431.443 638.523 431.424H661.173C662.461 431.424 663.735 431.692 664.914 432.211C666.093 432.73 667.152 433.489 668.021 434.439C668.891 435.39 669.553 436.511 669.966 437.731C670.378 438.952 670.532 440.245 670.418 441.528L669.256 454.764C669.083 456.881 668.186 458.873 666.717 460.406C665.248 461.94 663.296 462.921 661.189 463.184L658.579 463.521C657.011 463.72 655.559 464.45 654.465 465.59C653.371 466.73 652.701 468.211 652.567 469.786L646.286 542.248C646.059 544.799 644.886 547.172 642.997 548.902C641.109 550.631 638.642 551.592 636.081 551.594H465.626C463.066 551.592 460.598 550.631 458.71 548.902C456.822 547.172 455.648 544.799 455.421 542.248L449.073 469.668C448.933 468.095 448.261 466.618 447.168 465.479C446.075 464.34 444.626 463.608 443.061 463.403L440.451 463.066C438.343 462.8 436.39 461.819 434.919 460.287C433.448 458.754 432.547 456.763 432.367 454.646L431.222 441.41C431.125 440.136 431.292 438.856 431.712 437.65C432.132 436.443 432.797 435.337 433.665 434.399C434.533 433.462 435.585 432.714 436.756 432.202C437.926 431.69 439.19 431.425 440.467 431.424Z" fill="#F0F0F0"/>
<path d="M172.038 182.68C172.038 182.68 170.168 170.37 179.144 162.472C188.12 154.574 187.328 149.893 184.752 149.287C182.175 148.68 179.835 156.561 175.894 158.734C175.894 158.734 175.759 147.485 179.767 143.359C183.775 139.233 185.88 128.54 182.057 128.355C178.235 128.169 177.864 134.686 177.005 139.317C176.147 143.948 171.953 150.449 171.953 150.449C171.953 150.449 171.128 140.345 168.585 136.252C166.043 132.16 172.897 122.646 170.269 118.52C167.642 114.394 162.877 122.258 163.264 131.133C163.651 140.008 169.579 149.472 168.198 158.734C168.198 158.734 165.588 152.217 163.247 151.627C160.906 151.038 158.532 146.744 156.966 145.144C155.4 143.544 153.413 149.068 156.966 154.187C160.519 159.306 169.579 173.031 168.198 184.112L172.038 182.68Z" fill="#E6E6E6"/>
<path d="M177.393 177.073L180.34 195.512C180.551 196.851 180.47 198.22 180.102 199.524C179.734 200.829 179.088 202.038 178.208 203.069C177.327 204.1 176.234 204.927 175.003 205.495C173.772 206.063 172.433 206.357 171.078 206.357H167.945C166.59 206.357 165.251 206.063 164.02 205.495C162.789 204.927 161.696 204.1 160.816 203.069C159.935 202.038 159.289 200.829 158.921 199.524C158.553 198.22 158.472 196.851 158.683 195.512L161.664 177.073H177.393Z" fill="#E6E6E6"/>
<path d="M353.724 202.754H362.868V163.432H353.724V202.754Z" fill="#EBEBEB"/>
<path d="M309.502 202.754H318.646V163.432H309.502V202.754Z" fill="#EBEBEB"/>
<path d="M252.624 201.191L261.635 202.744L268.314 163.994L259.303 162.441L252.624 201.191Z" fill="#EBEBEB"/>
<path d="M342.391 202.737H351.535V168.602H342.391V202.737Z" fill="#EBEBEB"/>
<path d="M321.374 202.737H330.519V168.602H321.374V202.737Z" fill="#EBEBEB"/>
<path d="M268.295 202.737H277.439V168.602H268.295V202.737Z" fill="#EBEBEB"/>
<path d="M290.103 200.757L299.029 202.74L306.435 169.419L297.508 167.435L290.103 200.757Z" fill="#EBEBEB"/>
<path d="M334.476 202.754H339.057V161.479H334.476V202.754Z" fill="#EBEBEB"/>
<path d="M280.066 202.754H284.646V161.479H280.066V202.754Z" fill="#EBEBEB"/>
<path d="M247.464 171.532H202.889V202.299H247.464V171.532Z" fill="#EBEBEB"/>
<path d="M400.337 184.128H363.003V207.098H400.337V184.128Z" fill="#EBEBEB"/>
<path d="M391.614 163.938H372.938V186.907H391.614V163.938Z" fill="#EBEBEB"/>
<path d="M703.592 133.541H659.185V318.579H703.592V133.541Z" fill="#E0E0E0"/>
<path d="M532.75 319.084H698.826V133.558L532.75 133.558V319.084Z" fill="#E0E0E0"/>
<path d="M527.395 319.084H699.702V133.558L527.395 133.558V319.084Z" fill="#F0F0F0"/>
<path d="M534.771 310.546H692.629V139.452L534.771 139.452V310.546Z" fill="white"/>
<path d="M534.754 310.546H537.685V139.452H534.754V310.546Z" fill="#E0E0E0"/>
<path d="M537.213 262.502V267.116H693.05V262.502H537.213Z" fill="#E0E0E0"/>
<path d="M534.754 262.485H695.088V254.739L534.754 254.739V262.485Z" fill="#F0F0F0"/>
<path d="M421 627.391C601.327 627.391 747.511 618.856 747.511 608.328C747.511 597.8 601.327 589.265 421 589.265C240.673 589.265 94.4893 597.8 94.4893 608.328C94.4893 618.856 240.673 627.391 421 627.391Z" fill="#F5F5F5"/>
<path d="M542.164 164.729H240.88C234.072 164.729 228.553 170.248 228.553 177.056V531.807C228.553 538.615 234.072 544.134 240.88 544.134H542.164C548.972 544.134 554.491 538.615 554.491 531.807V177.056C554.491 170.248 548.972 164.729 542.164 164.729Z" fill="#3694C1"/>
<path opacity="0.6" d="M542.164 164.729H240.88C234.072 164.729 228.553 170.248 228.553 177.056V531.807C228.553 538.615 234.072 544.134 240.88 544.134H542.164C548.972 544.134 554.491 538.615 554.491 531.807V177.056C554.491 170.248 548.972 164.729 542.164 164.729Z" fill="white"/>
<path d="M501.698 338.737H281.363V376.458H501.698V338.737Z" fill="white"/>
<g opacity="0.4">
<path d="M301.065 361.269V362.262H293.42V351.451H300.83V352.428H294.565V356.284H300.156V357.244H294.565V361.269H301.065Z" fill="#263238"/>
<path d="M302.598 357.597H306.656V358.54H302.598V357.597Z" fill="#263238"/>
<path d="M322.502 357.547V362.262H321.408V357.648C321.408 355.964 320.549 355.055 319.084 355.055C318.704 355.037 318.325 355.103 317.973 355.247C317.621 355.391 317.305 355.61 317.047 355.889C316.789 356.168 316.594 356.501 316.478 356.863C316.362 357.224 316.326 357.607 316.373 357.985V362.262H315.261V357.648C315.261 355.964 314.402 355.055 312.92 355.055C312.541 355.037 312.161 355.103 311.81 355.247C311.458 355.391 311.142 355.61 310.883 355.889C310.625 356.168 310.431 356.501 310.315 356.863C310.198 357.224 310.162 357.607 310.209 357.985V362.262H309.098V354.128H310.159V355.61C310.476 355.114 310.919 354.709 311.442 354.438C311.965 354.166 312.55 354.036 313.139 354.061C313.734 354.011 314.33 354.146 314.846 354.447C315.361 354.748 315.771 355.202 316.019 355.745C316.355 355.202 316.831 354.76 317.397 354.464C317.963 354.168 318.598 354.028 319.235 354.061C319.692 354.026 320.152 354.095 320.579 354.261C321.006 354.427 321.391 354.687 321.704 355.021C322.017 355.356 322.252 355.756 322.39 356.193C322.528 356.631 322.567 357.093 322.502 357.547Z" fill="#263238"/>
<path d="M331.63 357.21V362.262H330.569V360.982C330.268 361.438 329.849 361.804 329.357 362.041C328.865 362.278 328.318 362.378 327.773 362.329C325.938 362.329 324.81 361.37 324.81 359.972C324.81 358.574 325.618 357.665 327.942 357.665H330.518V357.176C330.518 355.779 329.744 355.021 328.228 355.021C327.239 355.01 326.278 355.35 325.517 355.981L325.028 355.172C325.98 354.407 327.176 354.012 328.396 354.061C328.826 354.009 329.262 354.053 329.673 354.192C330.083 354.33 330.457 354.559 330.767 354.861C331.077 355.163 331.316 355.531 331.465 355.938C331.614 356.344 331.671 356.779 331.63 357.21ZM330.518 359.82V358.49H327.975C326.409 358.49 325.887 359.096 325.887 359.938C325.887 360.78 326.645 361.471 327.942 361.471C328.491 361.507 329.038 361.366 329.502 361.069C329.965 360.772 330.322 360.335 330.518 359.82Z" fill="#263238"/>
<path d="M334.358 351.569C334.361 351.465 334.383 351.362 334.425 351.267C334.467 351.172 334.527 351.086 334.602 351.014C334.677 350.942 334.766 350.886 334.863 350.848C334.959 350.81 335.063 350.792 335.167 350.794C335.268 350.792 335.37 350.81 335.464 350.847C335.559 350.883 335.646 350.939 335.719 351.009C335.793 351.079 335.852 351.164 335.893 351.257C335.934 351.35 335.956 351.45 335.958 351.552C335.96 351.657 335.942 351.762 335.903 351.86C335.864 351.958 335.806 352.047 335.732 352.123C335.659 352.198 335.571 352.258 335.474 352.298C335.376 352.339 335.272 352.36 335.167 352.36C335.061 352.362 334.957 352.344 334.859 352.305C334.761 352.266 334.671 352.208 334.596 352.134C334.521 352.061 334.461 351.973 334.42 351.876C334.379 351.778 334.358 351.674 334.358 351.569ZM334.611 354.128H335.706V362.262H334.611V354.128Z" fill="#263238"/>
<path d="M338.753 350.794H339.848V362.262H338.753V350.794Z" fill="#263238"/>
</g>
<path d="M501.698 390.267H281.363V427.989H501.698V390.267Z" fill="white"/>
<g opacity="0.4">
<path d="M301.874 406.737C301.874 409.044 300.19 410.441 297.462 410.441H294.565V413.809H293.42V402.998H297.462C300.206 403.032 301.874 404.429 301.874 406.737ZM300.728 406.737C300.728 405.053 299.6 404.025 297.36 404.025H294.498V409.431H297.36C299.6 409.431 300.728 408.437 300.728 406.737Z" fill="#263238"/>
<path d="M310.176 408.808V413.86H309.115V412.58C308.813 413.036 308.395 413.401 307.902 413.638C307.41 413.876 306.863 413.975 306.319 413.927C304.484 413.927 303.355 412.967 303.355 411.553C303.355 410.138 304.164 409.212 306.488 409.212H309.064V408.707C309.064 407.326 308.273 406.568 306.757 406.568C305.773 406.555 304.817 406.896 304.063 407.528L303.558 406.703C304.517 405.954 305.709 405.567 306.926 405.608C307.361 405.552 307.804 405.595 308.221 405.735C308.637 405.875 309.017 406.108 309.33 406.417C309.643 406.725 309.882 407.1 310.028 407.515C310.175 407.929 310.225 408.371 310.176 408.808ZM309.081 411.401V410.071H306.488C304.922 410.071 304.416 410.694 304.416 411.536C304.416 412.378 305.157 413.052 306.471 413.052C307.025 413.093 307.578 412.954 308.048 412.657C308.518 412.36 308.88 411.92 309.081 411.401Z" fill="#263238"/>
<path d="M312.028 412.917L312.517 412.058C313.366 412.651 314.377 412.968 315.413 412.967C316.946 412.967 317.586 412.445 317.586 411.637C317.586 409.515 312.315 411.182 312.315 407.983C312.315 406.652 313.46 405.659 315.531 405.659C316.541 405.65 317.536 405.912 318.411 406.417L317.922 407.292C317.214 406.825 316.38 406.584 315.531 406.602C314.066 406.602 313.409 407.174 313.409 407.949C313.409 410.138 318.68 408.488 318.68 411.603C318.68 413.018 317.451 413.927 315.312 413.927C314.137 413.958 312.983 413.603 312.028 412.917Z" fill="#263238"/>
<path d="M319.572 412.917L320.077 412.058C320.917 412.658 321.925 412.976 322.957 412.967C324.506 412.967 325.129 412.445 325.129 411.637C325.129 409.515 319.875 411.182 319.875 407.983C319.875 406.652 321.021 405.659 323.075 405.659C324.086 405.646 325.081 405.908 325.955 406.417L325.483 407.292C324.768 406.826 323.929 406.586 323.075 406.602C321.61 406.602 320.97 407.174 320.97 407.949C320.97 410.138 326.241 408.488 326.241 411.603C326.241 413.018 324.995 413.927 322.873 413.927C321.692 413.955 320.535 413.601 319.572 412.917Z" fill="#263238"/>
<path d="M340.016 405.726L336.951 413.843H335.924L333.431 407.191L330.872 413.843H329.844L326.695 405.726H327.739L330.299 412.63L332.909 405.726H333.852L336.446 412.63L339.022 405.726H340.016Z" fill="#263238"/>
<path d="M340.622 409.785C340.622 408.965 340.865 408.164 341.321 407.483C341.776 406.802 342.423 406.271 343.18 405.957C343.937 405.644 344.77 405.562 345.573 405.722C346.377 405.882 347.115 406.276 347.694 406.855C348.274 407.435 348.668 408.173 348.828 408.977C348.988 409.78 348.906 410.613 348.592 411.37C348.279 412.127 347.748 412.774 347.067 413.229C346.385 413.684 345.584 413.927 344.765 413.927C344.216 413.946 343.669 413.852 343.158 413.65C342.647 413.449 342.183 413.144 341.794 412.756C341.406 412.367 341.101 411.903 340.9 411.392C340.698 410.881 340.604 410.334 340.622 409.785ZM347.779 409.785C347.753 409.191 347.553 408.618 347.203 408.137C346.854 407.656 346.371 407.289 345.814 407.081C345.257 406.872 344.652 406.832 344.072 406.965C343.493 407.098 342.966 407.399 342.556 407.829C342.146 408.26 341.872 408.801 341.767 409.386C341.663 409.971 341.733 410.574 341.968 411.12C342.203 411.666 342.594 412.13 343.091 412.456C343.589 412.781 344.171 412.953 344.765 412.951C345.176 412.959 345.584 412.881 345.964 412.723C346.343 412.564 346.686 412.329 346.969 412.031C347.253 411.733 347.471 411.38 347.611 410.993C347.75 410.606 347.808 410.195 347.779 409.785Z" fill="#263238"/>
<path d="M355.223 405.659V406.72H354.954C354.568 406.701 354.184 406.768 353.827 406.915C353.471 407.062 353.151 407.286 352.89 407.57C352.63 407.855 352.435 408.193 352.32 408.561C352.206 408.929 352.173 409.318 352.225 409.7V413.843H351.131V405.726H352.175V407.309C352.459 406.76 352.901 406.309 353.445 406.015C353.989 405.72 354.608 405.596 355.223 405.659Z" fill="#263238"/>
<path d="M364.535 402.476V413.927H363.491V412.327C363.165 412.86 362.702 413.296 362.152 413.592C361.602 413.888 360.983 414.032 360.359 414.011C359.308 413.944 358.322 413.48 357.602 412.712C356.881 411.944 356.48 410.93 356.48 409.877C356.48 408.824 356.881 407.811 357.602 407.043C358.322 406.275 359.308 405.81 360.359 405.743C360.975 405.729 361.584 405.878 362.125 406.173C362.666 406.469 363.12 406.901 363.441 407.427V402.476H364.535ZM363.458 409.869C363.431 409.275 363.231 408.702 362.881 408.221C362.532 407.741 362.049 407.373 361.492 407.165C360.936 406.956 360.33 406.916 359.751 407.049C359.171 407.182 358.644 407.483 358.234 407.913C357.824 408.344 357.55 408.885 357.446 409.47C357.341 410.056 357.411 410.658 357.646 411.204C357.882 411.75 358.272 412.214 358.77 412.54C359.267 412.865 359.849 413.037 360.443 413.035C360.862 413.044 361.278 412.964 361.664 412.801C362.049 412.637 362.396 412.394 362.681 412.087C362.966 411.78 363.182 411.416 363.316 411.019C363.45 410.622 363.498 410.202 363.458 409.785V409.869Z" fill="#263238"/>
</g>
<path opacity="0.2" d="M501.698 466.468H281.363V504.19H501.698V466.468Z" fill="black"/>
<g opacity="0.5">
<path d="M334.948 449.14H331.344L330.57 450.824H329.862L332.809 444.374H333.483L336.43 450.824H335.723L334.948 449.14ZM334.695 448.584L333.146 445.115L331.597 448.584H334.695Z" fill="black"/>
<path d="M337.373 444.021H338.03V450.858H337.373V444.021Z" fill="black"/>
<path d="M342.307 445.974V446.614H342.139C341.904 446.593 341.667 446.627 341.446 446.711C341.226 446.795 341.027 446.928 340.865 447.099C340.703 447.271 340.582 447.477 340.511 447.702C340.44 447.927 340.421 448.165 340.455 448.399V450.874H339.798V446.024H340.438V446.967C340.607 446.627 340.878 446.349 341.213 446.171C341.548 445.992 341.931 445.924 342.307 445.974Z" fill="black"/>
<path d="M347.662 448.635H343.537C343.55 448.871 343.609 449.102 343.712 449.315C343.815 449.527 343.959 449.718 344.136 449.874C344.313 450.031 344.52 450.151 344.743 450.227C344.967 450.303 345.204 450.335 345.44 450.319C345.72 450.328 345.998 450.278 346.257 450.17C346.515 450.063 346.748 449.901 346.938 449.695L347.292 450.116C346.944 450.482 346.496 450.736 346.003 450.848C345.511 450.959 344.997 450.923 344.526 450.743C344.054 450.563 343.646 450.247 343.353 449.836C343.061 449.425 342.896 448.937 342.88 448.432C342.864 448.112 342.913 447.793 343.026 447.492C343.138 447.192 343.311 446.919 343.534 446.688C343.757 446.458 344.024 446.275 344.32 446.153C344.616 446.03 344.934 445.969 345.254 445.974C345.575 445.966 345.893 446.025 346.19 446.147C346.486 446.27 346.753 446.452 346.975 446.683C347.197 446.915 347.368 447.19 347.478 447.491C347.587 447.792 347.633 448.113 347.612 448.432C347.612 448.432 347.662 448.567 347.662 448.635ZM343.604 448.146H346.972C346.972 447.7 346.795 447.271 346.479 446.955C346.163 446.64 345.735 446.462 345.288 446.462C344.841 446.462 344.413 446.64 344.097 446.955C343.781 447.271 343.604 447.7 343.604 448.146Z" fill="black"/>
<path d="M352.529 447.944V450.942H351.957V450.184C351.778 450.461 351.526 450.683 351.229 450.826C350.932 450.968 350.601 451.026 350.273 450.992C349.178 450.992 348.589 450.419 348.589 449.577C348.589 448.735 349.06 448.197 350.458 448.197H351.957V447.91C351.957 447.085 351.485 446.63 350.576 446.63C349.963 446.608 349.364 446.812 348.892 447.203L348.606 446.715C349.164 446.269 349.862 446.037 350.576 446.058C350.837 446.013 351.104 446.031 351.357 446.108C351.609 446.186 351.84 446.323 352.03 446.506C352.221 446.69 352.365 446.916 352.452 447.166C352.538 447.415 352.565 447.682 352.529 447.944ZM351.89 449.493V448.685H350.357C349.414 448.685 349.111 449.055 349.111 449.561C349.111 450.066 349.566 450.47 350.34 450.47C350.689 450.497 351.037 450.407 351.329 450.215C351.622 450.023 351.843 449.74 351.957 449.409L351.89 449.493Z" fill="black"/>
<path d="M358.693 444.021V450.858H358.069V449.898C357.878 450.219 357.603 450.483 357.274 450.661C356.945 450.839 356.574 450.924 356.2 450.908C355.581 450.857 355.004 450.575 354.583 450.118C354.162 449.661 353.929 449.062 353.929 448.441C353.929 447.82 354.162 447.221 354.583 446.764C355.004 446.307 355.581 446.025 356.2 445.974C356.565 445.964 356.926 446.047 357.25 446.215C357.574 446.383 357.85 446.63 358.053 446.934V444.021H358.693ZM358.053 448.433C358.036 448.08 357.917 447.741 357.709 447.455C357.501 447.17 357.214 446.953 356.884 446.829C356.554 446.705 356.194 446.682 355.85 446.76C355.507 446.839 355.193 447.017 354.95 447.272C354.706 447.527 354.543 447.848 354.48 448.195C354.417 448.542 354.457 448.9 354.596 449.224C354.734 449.549 354.965 449.825 355.259 450.02C355.553 450.214 355.898 450.318 356.251 450.319C356.502 450.334 356.753 450.295 356.987 450.205C357.222 450.115 357.435 449.977 357.612 449.798C357.789 449.62 357.925 449.406 358.013 449.17C358.101 448.935 358.137 448.683 358.12 448.433H358.053Z" fill="black"/>
<path d="M364.671 446.008L362.246 451.447C361.841 452.39 361.319 452.693 360.562 452.693C360.127 452.705 359.704 452.548 359.383 452.255L359.686 451.767C359.923 452.004 360.244 452.137 360.578 452.137C361.016 452.137 361.303 451.935 361.589 451.312L361.791 450.857L359.619 446.008H360.376L362.212 450.133L364.031 446.008H364.671Z" fill="black"/>
<path d="M371.676 447.944V450.942H371.053V450.184C370.874 450.461 370.622 450.683 370.325 450.826C370.027 450.968 369.697 451.026 369.369 450.992C368.274 450.992 367.685 450.419 367.685 449.577C367.685 448.735 368.156 448.197 369.554 448.197H371.086V447.91C371.086 447.085 370.632 446.63 369.722 446.63C369.11 446.608 368.51 446.812 368.038 447.203L367.735 446.715C368.3 446.269 369.003 446.037 369.722 446.058C369.983 446.013 370.25 446.031 370.503 446.108C370.756 446.186 370.986 446.323 371.177 446.506C371.367 446.69 371.511 446.916 371.598 447.166C371.685 447.415 371.711 447.682 371.676 447.944ZM371.019 449.493V448.685H369.503C368.56 448.685 368.257 449.055 368.257 449.561C368.257 450.066 368.712 450.47 369.486 450.47C369.822 450.483 370.154 450.387 370.43 450.196C370.707 450.004 370.913 449.728 371.019 449.409V449.493Z" fill="black"/>
<path d="M383.953 448.045V450.858H383.313V448.113C383.313 447.085 382.791 446.563 381.915 446.563C381.69 446.546 381.463 446.577 381.25 446.655C381.038 446.734 380.845 446.857 380.685 447.017C380.525 447.177 380.402 447.37 380.323 447.582C380.245 447.795 380.213 448.022 380.231 448.247V450.79H379.591V448.113C379.591 447.085 379.069 446.563 378.177 446.563C377.951 446.546 377.724 446.577 377.512 446.655C377.3 446.734 377.107 446.857 376.947 447.017C376.787 447.177 376.663 447.37 376.585 447.582C376.506 447.795 376.475 448.022 376.493 448.247V450.79H375.836V445.94H376.459V446.833C376.645 446.531 376.909 446.285 377.223 446.122C377.538 445.959 377.891 445.885 378.244 445.907C378.597 445.879 378.95 445.963 379.252 446.148C379.555 446.332 379.791 446.607 379.928 446.934C380.124 446.604 380.406 446.334 380.745 446.153C381.083 445.972 381.465 445.887 381.848 445.907C382.139 445.855 382.438 445.874 382.72 445.964C383.001 446.054 383.257 446.211 383.464 446.421C383.671 446.632 383.824 446.89 383.909 447.173C383.995 447.456 384.009 447.755 383.953 448.045Z" fill="black"/>
<path d="M389.914 448.635H385.855C385.89 449.111 386.111 449.555 386.47 449.87C386.829 450.185 387.298 450.346 387.775 450.319C388.053 450.329 388.329 450.279 388.585 450.171C388.841 450.064 389.071 449.901 389.257 449.696L389.628 450.117C389.391 450.375 389.102 450.579 388.779 450.716C388.457 450.852 388.108 450.918 387.758 450.908C387.425 450.929 387.09 450.881 386.776 450.765C386.463 450.649 386.177 450.468 385.937 450.235C385.697 450.002 385.509 449.721 385.385 449.41C385.261 449.1 385.203 448.767 385.216 448.433C385.216 447.807 385.464 447.208 385.906 446.765C386.348 446.323 386.948 446.075 387.573 446.075C388.198 446.075 388.798 446.323 389.24 446.765C389.682 447.208 389.931 447.807 389.931 448.433C389.931 448.433 389.914 448.567 389.914 448.635ZM385.855 448.146H389.308C389.308 447.688 389.126 447.249 388.802 446.926C388.478 446.602 388.039 446.42 387.582 446.42C387.124 446.42 386.685 446.602 386.361 446.926C386.037 447.249 385.855 447.688 385.855 448.146Z" fill="black"/>
<path d="M399.277 448.045V450.858H398.62V448.113C398.62 447.085 398.115 446.563 397.239 446.563C397.013 446.543 396.785 446.572 396.571 446.649C396.358 446.727 396.163 446.85 396.003 447.011C395.842 447.171 395.719 447.365 395.641 447.579C395.564 447.793 395.535 448.021 395.555 448.247V450.79H394.899V448.113C394.899 447.085 394.393 446.563 393.501 446.563C393.275 446.543 393.046 446.572 392.833 446.649C392.619 446.727 392.425 446.85 392.264 447.011C392.104 447.171 391.98 447.365 391.903 447.579C391.826 447.793 391.796 448.021 391.817 448.247V450.79H391.16V445.94H391.783V446.833C391.967 446.53 392.231 446.283 392.546 446.12C392.861 445.956 393.214 445.883 393.568 445.907C393.921 445.879 394.274 445.963 394.576 446.148C394.879 446.332 395.115 446.607 395.252 446.934C395.448 446.604 395.731 446.334 396.069 446.153C396.407 445.972 396.789 445.887 397.172 445.907C397.463 445.855 397.762 445.874 398.044 445.964C398.325 446.054 398.581 446.211 398.788 446.421C398.995 446.632 399.148 446.89 399.234 447.173C399.319 447.456 399.334 447.755 399.277 448.045Z" fill="black"/>
<path d="M405.979 448.433C405.995 448.756 405.944 449.08 405.83 449.383C405.716 449.686 405.54 449.963 405.314 450.195C405.088 450.427 404.817 450.61 404.517 450.733C404.217 450.856 403.895 450.915 403.571 450.908C403.197 450.924 402.826 450.839 402.497 450.661C402.168 450.483 401.893 450.219 401.701 449.898V450.858H401.062V444.021H401.718V446.934C401.919 446.629 402.195 446.381 402.52 446.213C402.844 446.045 403.206 445.962 403.571 445.974C403.894 445.964 404.216 446.022 404.516 446.142C404.815 446.263 405.087 446.445 405.313 446.676C405.54 446.907 405.716 447.182 405.83 447.484C405.945 447.787 405.995 448.11 405.979 448.433ZM405.322 448.433C405.306 448.08 405.186 447.741 404.978 447.455C404.771 447.17 404.484 446.953 404.153 446.829C403.823 446.705 403.464 446.682 403.12 446.76C402.776 446.839 402.463 447.017 402.219 447.272C401.976 447.527 401.812 447.848 401.749 448.195C401.686 448.542 401.726 448.9 401.865 449.224C402.004 449.549 402.234 449.825 402.528 450.02C402.823 450.214 403.167 450.318 403.52 450.319C403.765 450.324 404.009 450.278 404.236 450.184C404.462 450.09 404.667 449.95 404.836 449.772C405.006 449.595 405.136 449.384 405.22 449.154C405.304 448.923 405.338 448.677 405.322 448.433Z" fill="black"/>
<path d="M411.553 448.635H407.528C407.541 448.871 407.601 449.102 407.703 449.315C407.806 449.527 407.951 449.718 408.128 449.874C408.305 450.031 408.511 450.151 408.735 450.227C408.959 450.303 409.195 450.334 409.431 450.319C409.711 450.318 409.987 450.256 410.241 450.137C410.494 450.018 410.718 449.844 410.896 449.628L411.267 450.049C410.919 450.415 410.47 450.669 409.978 450.78C409.486 450.892 408.972 450.855 408.5 450.675C408.029 450.495 407.621 450.18 407.328 449.769C407.035 449.358 406.871 448.87 406.855 448.365C406.838 448.045 406.888 447.725 407.001 447.425C407.113 447.125 407.286 446.851 407.509 446.621C407.731 446.39 407.999 446.208 408.295 446.085C408.591 445.962 408.909 445.901 409.229 445.906C409.549 445.899 409.866 445.958 410.162 446.08C410.457 446.202 410.724 446.385 410.944 446.617C411.165 446.848 411.335 447.124 411.442 447.425C411.55 447.726 411.593 448.046 411.57 448.365L411.553 448.635ZM407.494 448.146H410.862C410.862 447.7 410.685 447.271 410.369 446.955C410.053 446.64 409.625 446.462 409.178 446.462C408.732 446.462 408.303 446.64 407.988 446.955C407.672 447.271 407.494 447.7 407.494 448.146Z" fill="black"/>
<path d="M415.342 445.974V446.614H415.19C414.955 446.594 414.719 446.627 414.498 446.711C414.278 446.795 414.079 446.928 413.917 447.099C413.755 447.271 413.634 447.477 413.563 447.702C413.492 447.927 413.473 448.165 413.506 448.399V450.874H412.85V446.024H413.473V446.967C413.644 446.629 413.915 446.352 414.25 446.174C414.584 445.996 414.966 445.926 415.342 445.974Z" fill="black"/>
<path d="M419.586 446.058C419.586 445.385 419.047 444.93 418.104 444.93C417.773 444.911 417.441 444.968 417.135 445.096C416.828 445.225 416.555 445.421 416.336 445.671L415.848 445.3C416.135 444.976 416.491 444.722 416.891 444.555C417.291 444.389 417.723 444.316 418.155 444.34C419.451 444.34 420.277 444.963 420.277 446.024C420.277 447.591 418.593 447.708 418.593 448.988H417.902C417.902 447.405 419.586 447.254 419.586 446.058ZM417.767 450.42C417.788 450.308 417.848 450.207 417.936 450.134C418.023 450.061 418.134 450.022 418.247 450.022C418.361 450.022 418.471 450.061 418.559 450.134C418.647 450.207 418.706 450.308 418.727 450.42C418.741 450.49 418.738 450.563 418.72 450.632C418.702 450.702 418.669 450.766 418.623 450.822C418.577 450.877 418.52 450.921 418.455 450.952C418.39 450.983 418.319 450.998 418.247 450.998C418.176 450.998 418.105 450.983 418.04 450.952C417.975 450.921 417.917 450.877 417.871 450.822C417.826 450.766 417.793 450.702 417.775 450.632C417.757 450.563 417.754 450.49 417.767 450.42Z" fill="black"/>
<path d="M424.149 444.408H425.648V449.628H428.881V450.841H424.149V444.408Z" fill="black"/>
<path d="M429.218 448.382C429.184 447.837 429.315 447.294 429.594 446.823C429.872 446.353 430.286 445.977 430.78 445.745C431.275 445.512 431.828 445.434 432.368 445.519C432.907 445.605 433.409 445.85 433.808 446.224C434.206 446.598 434.483 447.083 434.603 447.616C434.722 448.15 434.679 448.707 434.479 449.215C434.278 449.723 433.929 450.16 433.478 450.468C433.026 450.776 432.493 450.941 431.946 450.942C431.596 450.965 431.245 450.916 430.915 450.797C430.585 450.679 430.282 450.494 430.026 450.254C429.771 450.014 429.567 449.724 429.428 449.402C429.289 449.08 429.217 448.733 429.218 448.382ZM433.209 448.382C433.19 448.138 433.099 447.904 432.949 447.71C432.799 447.516 432.595 447.37 432.364 447.29C432.132 447.209 431.882 447.198 431.644 447.258C431.406 447.317 431.19 447.445 431.023 447.625C430.857 447.805 430.746 448.03 430.705 448.272C430.664 448.513 430.694 448.762 430.792 448.987C430.89 449.212 431.051 449.403 431.256 449.538C431.461 449.673 431.701 449.745 431.946 449.746C432.122 449.749 432.296 449.715 432.457 449.647C432.619 449.578 432.764 449.476 432.883 449.347C433.002 449.218 433.093 449.066 433.149 448.899C433.205 448.733 433.226 448.557 433.209 448.382Z" fill="black"/>
<path d="M440.753 445.89V450.032C440.799 450.404 440.759 450.782 440.634 451.136C440.509 451.49 440.304 451.81 440.035 452.071C439.766 452.332 439.439 452.527 439.082 452.641C438.724 452.755 438.345 452.784 437.975 452.727C437.108 452.76 436.254 452.518 435.533 452.036L436.105 451.009C436.597 451.361 437.185 451.554 437.789 451.565C438.8 451.565 439.255 451.11 439.255 450.217V449.998C439.053 450.208 438.809 450.372 438.539 450.48C438.269 450.587 437.979 450.635 437.688 450.622C437.356 450.649 437.022 450.608 436.707 450.5C436.392 450.392 436.102 450.22 435.857 449.994C435.612 449.769 435.416 449.495 435.282 449.19C435.148 448.885 435.079 448.555 435.079 448.222C435.079 447.889 435.148 447.559 435.282 447.254C435.416 446.949 435.612 446.675 435.857 446.449C436.102 446.224 436.392 446.052 436.707 445.944C437.022 445.836 437.356 445.794 437.688 445.822C438.005 445.797 438.323 445.848 438.616 445.971C438.91 446.094 439.169 446.285 439.372 446.529V445.89H440.753ZM439.339 448.23C439.344 448.062 439.314 447.894 439.249 447.738C439.185 447.581 439.089 447.441 438.966 447.325C438.844 447.208 438.698 447.12 438.539 447.064C438.38 447.008 438.21 446.987 438.042 447.001C437.87 446.981 437.695 446.997 437.529 447.049C437.364 447.101 437.211 447.188 437.082 447.303C436.952 447.419 436.848 447.56 436.777 447.718C436.706 447.877 436.669 448.048 436.669 448.222C436.669 448.395 436.706 448.567 436.777 448.725C436.848 448.884 436.952 449.025 437.082 449.14C437.211 449.256 437.364 449.342 437.529 449.394C437.695 449.447 437.87 449.463 438.042 449.443C438.209 449.457 438.377 449.436 438.535 449.381C438.693 449.326 438.838 449.239 438.96 449.125C439.082 449.01 439.179 448.872 439.244 448.718C439.309 448.564 439.342 448.398 439.339 448.23Z" fill="black"/>
<path d="M444.576 444.408C444.578 444.295 444.603 444.184 444.65 444.081C444.696 443.978 444.764 443.886 444.847 443.81C444.931 443.734 445.029 443.677 445.136 443.64C445.243 443.604 445.356 443.59 445.469 443.599C445.579 443.588 445.69 443.599 445.796 443.632C445.902 443.665 446 443.72 446.083 443.793C446.167 443.865 446.235 443.955 446.283 444.055C446.33 444.155 446.357 444.263 446.361 444.374C446.361 444.611 446.267 444.838 446.1 445.005C445.932 445.173 445.705 445.267 445.469 445.267C445.232 445.267 445.005 445.173 444.838 445.005C444.67 444.838 444.576 444.611 444.576 444.374V444.408ZM444.745 445.89H446.176V450.942H444.745V445.89Z" fill="black"/>
<path d="M452.558 447.944V450.79H451.127V448.18C451.127 447.372 450.756 447.001 450.116 447.001C449.476 447.001 448.921 447.422 448.921 448.332V450.79H447.489V445.738H448.87V446.328C449.087 446.104 449.35 445.929 449.641 445.816C449.931 445.702 450.243 445.653 450.554 445.671C450.845 445.656 451.135 445.707 451.404 445.82C451.672 445.934 451.912 446.106 452.104 446.324C452.297 446.543 452.438 446.802 452.516 447.082C452.595 447.363 452.609 447.657 452.558 447.944Z" fill="black"/>
</g>
<path d="M501.698 464.161H281.363V501.883H501.698V464.161Z" fill="#3694C1"/>
<path d="M363.07 488.882L360.376 484.992H359.568H356.368V488.916H354.516V476H359.568C362.936 476 364.94 477.683 364.94 480.513C364.982 481.409 364.728 482.294 364.217 483.03C363.705 483.767 362.965 484.315 362.11 484.588L365.175 488.916L363.07 488.882ZM363.07 480.462C363.07 478.61 361.841 477.566 359.467 477.566H356.334V483.375H359.467C361.791 483.392 363.02 482.315 363.02 480.479L363.07 480.462Z" fill="white"/>
<path d="M376.408 484.588H368.476C368.601 485.421 369.033 486.177 369.688 486.707C370.343 487.237 371.172 487.502 372.013 487.451C372.541 487.47 373.068 487.374 373.556 487.171C374.045 486.967 374.483 486.661 374.842 486.272L375.819 487.417C375.098 488.148 374.181 488.656 373.179 488.88C372.177 489.104 371.131 489.034 370.168 488.678C369.205 488.323 368.364 487.697 367.748 486.876C367.131 486.055 366.764 485.073 366.691 484.049C366.656 483.388 366.758 482.726 366.991 482.106C367.224 481.487 367.583 480.922 368.045 480.447C368.507 479.973 369.062 479.599 369.675 479.349C370.288 479.1 370.947 478.98 371.609 478.997C372.267 478.979 372.922 479.099 373.531 479.349C374.14 479.6 374.69 479.975 375.146 480.451C375.601 480.927 375.952 481.493 376.175 482.113C376.398 482.732 376.489 483.392 376.442 484.049C376.442 484.2 376.425 484.419 376.408 484.588ZM368.476 483.308H374.741C374.66 482.533 374.296 481.816 373.717 481.294C373.139 480.773 372.387 480.484 371.609 480.484C370.83 480.484 370.078 480.773 369.5 481.294C368.921 481.816 368.557 482.533 368.476 483.308Z" fill="white"/>
<path d="M388.263 479.115V487.535C388.263 490.987 386.495 492.587 383.211 492.587C381.536 492.659 379.887 492.147 378.547 491.139L379.389 489.775C380.466 490.611 381.797 491.057 383.161 491.038C385.468 491.038 386.529 489.977 386.529 487.754V486.979C386.093 487.479 385.551 487.875 384.942 488.137C384.332 488.4 383.672 488.522 383.009 488.495C381.754 488.495 380.551 487.996 379.663 487.109C378.776 486.221 378.277 485.018 378.277 483.763C378.277 482.508 378.776 481.304 379.663 480.417C380.551 479.529 381.754 479.031 383.009 479.031C383.702 479.01 384.391 479.151 385.019 479.443C385.648 479.736 386.2 480.171 386.63 480.715V479.199L388.263 479.115ZM386.579 483.746C386.617 483.073 386.451 482.405 386.104 481.827C385.757 481.249 385.245 480.789 384.634 480.505C384.023 480.222 383.34 480.128 382.675 480.236C382.01 480.345 381.393 480.65 380.903 481.113C380.414 481.575 380.074 482.175 379.928 482.832C379.783 483.49 379.838 484.177 380.086 484.803C380.335 485.429 380.765 485.967 381.322 486.346C381.88 486.724 382.538 486.928 383.211 486.929C383.642 486.954 384.074 486.89 384.479 486.741C384.884 486.592 385.254 486.361 385.566 486.062C385.877 485.763 386.124 485.403 386.289 485.005C386.455 484.606 386.537 484.177 386.529 483.746H386.579Z" fill="white"/>
<path d="M391.328 476.084C391.33 475.929 391.363 475.776 391.424 475.634C391.486 475.492 391.574 475.363 391.685 475.255C391.796 475.147 391.927 475.062 392.071 475.005C392.215 474.948 392.369 474.92 392.524 474.922C392.687 474.902 392.852 474.917 393.009 474.966C393.166 475.015 393.311 475.097 393.434 475.206C393.557 475.315 393.656 475.449 393.723 475.599C393.79 475.748 393.825 475.911 393.825 476.075C393.825 476.24 393.79 476.402 393.723 476.552C393.656 476.702 393.557 476.836 393.434 476.945C393.311 477.054 393.166 477.136 393.009 477.185C392.852 477.234 392.687 477.249 392.524 477.229C392.37 477.233 392.216 477.207 392.073 477.152C391.929 477.096 391.798 477.013 391.686 476.907C391.575 476.8 391.486 476.672 391.425 476.531C391.363 476.39 391.33 476.238 391.328 476.084ZM391.648 479.115H393.416V488.882H391.648V479.115Z" fill="white"/>
<path d="M395.555 487.855L396.296 486.457C397.299 487.109 398.468 487.459 399.664 487.467C401.348 487.467 401.988 486.962 401.988 486.137C401.988 483.948 395.807 485.851 395.807 481.944C395.807 480.26 397.373 479.014 399.883 479.014C401.125 478.994 402.35 479.302 403.436 479.906L402.678 481.304C401.837 480.775 400.859 480.505 399.866 480.529C398.316 480.529 397.559 481.102 397.559 481.877C397.559 484.184 403.756 482.298 403.756 486.103C403.756 487.787 402.072 489 399.529 489C398.12 489.021 396.737 488.622 395.555 487.855Z" fill="white"/>
<path d="M411.536 488.36C410.924 488.828 410.169 489.072 409.398 489.051C408.982 489.098 408.561 489.052 408.166 488.915C407.771 488.779 407.411 488.555 407.114 488.261C406.817 487.967 406.589 487.61 406.448 487.216C406.307 486.822 406.256 486.402 406.299 485.986V480.614H404.615V479.166H406.299V477.027H407.983V479.166H410.897V480.614H408.084V485.918C408.045 486.135 408.055 486.358 408.116 486.57C408.177 486.782 408.285 486.977 408.434 487.14C408.582 487.303 408.766 487.429 408.971 487.51C409.176 487.59 409.397 487.622 409.617 487.602C410.115 487.607 410.6 487.447 410.998 487.148L411.536 488.36Z" fill="white"/>
<path d="M422.145 484.588H414.264C414.389 485.424 414.824 486.182 415.482 486.713C416.14 487.243 416.974 487.506 417.817 487.451C418.344 487.471 418.868 487.375 419.354 487.172C419.839 486.968 420.275 486.661 420.63 486.272L421.606 487.417C420.888 488.15 419.972 488.66 418.971 488.885C417.969 489.11 416.923 489.04 415.96 488.684C414.997 488.328 414.158 487.701 413.543 486.878C412.928 486.056 412.565 485.073 412.496 484.049C412.461 483.388 412.563 482.726 412.796 482.107C413.029 481.487 413.388 480.922 413.849 480.447C414.311 479.973 414.866 479.599 415.48 479.349C416.093 479.1 416.751 478.98 417.413 478.997C418.071 478.981 418.725 479.103 419.333 479.354C419.941 479.606 420.49 479.981 420.945 480.457C421.399 480.932 421.75 481.497 421.974 482.116C422.198 482.734 422.291 483.393 422.246 484.049C422.229 484.231 422.195 484.412 422.145 484.588ZM414.264 483.308H420.546C420.448 482.544 420.076 481.841 419.498 481.332C418.919 480.822 418.175 480.541 417.405 480.541C416.634 480.541 415.89 480.822 415.312 481.332C414.734 481.841 414.361 482.544 414.264 483.308Z" fill="white"/>
<path d="M429.908 479.014V480.698H429.504C429.066 480.667 428.627 480.735 428.219 480.898C427.812 481.061 427.446 481.314 427.15 481.637C426.853 481.961 426.634 482.348 426.508 482.768C426.382 483.189 426.353 483.633 426.423 484.066V488.933H424.654V479.166H426.338V480.85C426.694 480.233 427.22 479.732 427.853 479.406C428.486 479.081 429.2 478.945 429.908 479.014Z" fill="white"/>
<g opacity="0.6">
<path d="M352.95 206.475L353.708 204.892C355.015 205.988 356.668 206.585 358.373 206.576C360.814 206.576 361.859 205.633 361.859 204.404C361.859 201.036 353.304 203.124 353.304 197.887C353.304 195.698 354.988 193.845 358.709 193.845C360.313 193.819 361.89 194.252 363.256 195.092L362.583 196.776C361.426 196.035 360.083 195.638 358.709 195.63C356.301 195.63 355.341 196.641 355.341 197.87C355.341 201.238 363.913 199.15 363.913 204.354C363.913 206.509 362.229 208.361 358.44 208.361C356.444 208.403 354.499 207.735 352.95 206.475Z" fill="#263238"/>
<path d="M366.17 194.064C366.172 193.895 366.208 193.727 366.275 193.572C366.343 193.416 366.44 193.276 366.563 193.158C366.685 193.041 366.829 192.949 366.987 192.887C367.145 192.826 367.314 192.797 367.483 192.801C367.651 192.795 367.818 192.821 367.975 192.879C368.131 192.938 368.275 193.027 368.397 193.141C368.52 193.256 368.618 193.393 368.686 193.546C368.755 193.698 368.793 193.863 368.797 194.031C368.797 194.379 368.659 194.713 368.412 194.959C368.166 195.206 367.832 195.344 367.483 195.344C367.135 195.344 366.801 195.206 366.555 194.959C366.308 194.713 366.17 194.379 366.17 194.031V194.064ZM366.507 197.432H368.46V208.143H366.507V197.432Z" fill="#263238"/>
<path d="M382.386 197.382V206.627C382.386 210.416 380.467 212.134 376.846 212.134C375.029 212.191 373.247 211.627 371.794 210.534L372.72 209.035C373.893 209.963 375.351 210.457 376.846 210.433C379.372 210.433 380.517 209.254 380.517 206.829V205.987C380.041 206.537 379.447 206.974 378.78 207.266C378.112 207.557 377.389 207.695 376.661 207.671C375.956 207.711 375.25 207.607 374.587 207.365C373.924 207.123 373.317 206.748 372.804 206.263C372.291 205.778 371.882 205.194 371.602 204.546C371.323 203.897 371.179 203.199 371.179 202.493C371.179 201.787 371.323 201.088 371.602 200.44C371.882 199.791 372.291 199.207 372.804 198.722C373.317 198.237 373.924 197.862 374.587 197.62C375.25 197.378 375.956 197.274 376.661 197.314C377.405 197.276 378.148 197.407 378.834 197.699C379.52 197.991 380.13 198.435 380.618 198.998V197.314L382.386 197.382ZM380.5 202.434C380.537 201.698 380.353 200.967 379.971 200.337C379.589 199.706 379.027 199.205 378.357 198.897C377.687 198.59 376.94 198.49 376.213 198.61C375.486 198.731 374.812 199.067 374.277 199.574C373.743 200.082 373.373 200.738 373.215 201.458C373.057 202.178 373.118 202.929 373.391 203.614C373.664 204.298 374.136 204.886 374.746 205.3C375.355 205.714 376.075 205.935 376.812 205.936C377.294 205.979 377.78 205.92 378.237 205.763C378.695 205.607 379.115 205.357 379.47 205.028C379.825 204.7 380.108 204.301 380.3 203.857C380.492 203.413 380.589 202.934 380.585 202.451L380.5 202.434Z" fill="#263238"/>
<path d="M396.263 201.929V208.092H394.309V202.08C394.309 199.975 393.265 198.948 391.43 198.948C390.963 198.917 390.496 198.99 390.061 199.16C389.626 199.331 389.233 199.595 388.912 199.934C388.59 200.273 388.348 200.679 388.201 201.123C388.054 201.567 388.006 202.037 388.062 202.501V208.025H386.125V197.314H387.994V198.998C388.454 198.428 389.044 197.977 389.716 197.683C390.387 197.39 391.12 197.264 391.851 197.314C392.458 197.274 393.067 197.367 393.635 197.587C394.202 197.808 394.715 198.15 395.135 198.59C395.556 199.03 395.875 199.557 396.07 200.134C396.265 200.711 396.331 201.323 396.263 201.929Z" fill="#263238"/>
<path d="M415.275 197.382V208.092H413.44V206.408C413.012 206.959 412.459 207.4 411.826 207.693C411.193 207.986 410.499 208.123 409.802 208.092C409.176 208.157 408.543 208.08 407.951 207.867C407.358 207.655 406.821 207.312 406.378 206.865C405.935 206.417 405.599 205.876 405.393 205.281C405.187 204.686 405.117 204.053 405.188 203.427V197.264H407.125V203.208C407.125 205.297 408.186 206.358 410.021 206.358C410.488 206.391 410.957 206.321 411.394 206.151C411.83 205.982 412.224 205.718 412.546 205.378C412.868 205.038 413.111 204.631 413.257 204.186C413.402 203.741 413.448 203.269 413.389 202.804V197.264L415.275 197.382Z" fill="#263238"/>
<path d="M430.06 202.737C430.098 203.46 429.985 204.183 429.728 204.86C429.47 205.536 429.075 206.152 428.566 206.667C428.057 207.182 427.447 207.586 426.773 207.851C426.1 208.117 425.378 208.239 424.655 208.21C423.944 208.238 423.236 208.1 422.587 207.808C421.938 207.516 421.366 207.077 420.916 206.526V212.049H418.979V197.432H420.832V199.116C421.277 198.53 421.856 198.06 422.522 197.746C423.188 197.432 423.919 197.284 424.655 197.314C425.374 197.283 426.092 197.402 426.763 197.664C427.435 197.926 428.044 198.324 428.552 198.834C429.061 199.345 429.458 199.955 429.717 200.627C429.977 201.299 430.094 202.017 430.06 202.737ZM428.107 202.737C428.074 202.033 427.835 201.354 427.42 200.784C427.006 200.215 426.433 199.779 425.773 199.531C425.114 199.284 424.396 199.235 423.708 199.391C423.021 199.547 422.395 199.901 421.907 200.41C421.419 200.918 421.091 201.559 420.963 202.252C420.835 202.945 420.913 203.66 421.188 204.309C421.462 204.958 421.921 205.512 422.507 205.903C423.093 206.294 423.781 206.505 424.486 206.509C424.977 206.519 425.465 206.428 425.919 206.24C426.373 206.052 426.784 205.772 427.124 205.417C427.464 205.063 427.727 204.641 427.896 204.18C428.065 203.719 428.137 203.227 428.107 202.737Z" fill="#263238"/>
</g>
<path d="M501.698 287.189H281.363V324.911H501.698V287.189Z" fill="white"/>
<g opacity="0.4">
<path d="M293.42 299.904H294.565V309.721H300.611V310.715H293.42V299.904Z" fill="#263238"/>
<path d="M308.441 305.68V310.732H307.397V309.469C307.091 309.919 306.671 310.281 306.18 310.517C305.689 310.754 305.145 310.857 304.602 310.816C302.766 310.816 301.638 309.856 301.638 308.441C301.638 307.027 302.429 306.151 304.77 306.151H307.346V305.663C307.346 304.265 306.555 303.507 305.039 303.507C304.055 303.494 303.099 303.835 302.345 304.467L301.84 303.642C302.801 302.897 303.992 302.51 305.208 302.547C305.636 302.496 306.071 302.54 306.48 302.678C306.888 302.815 307.261 303.042 307.571 303.342C307.881 303.643 308.12 304.008 308.271 304.413C308.421 304.817 308.479 305.25 308.441 305.68ZM307.346 308.273V306.943H304.804C303.221 306.943 302.715 307.566 302.715 308.408C302.715 309.25 303.473 309.923 304.77 309.923C305.319 309.957 305.864 309.815 306.328 309.519C306.791 309.222 307.147 308.786 307.346 308.273Z" fill="#263238"/>
<path d="M310.294 309.856L310.782 308.997C311.632 309.59 312.643 309.907 313.679 309.906C315.228 309.906 315.851 309.384 315.851 308.576C315.851 306.454 310.597 308.121 310.597 304.922C310.597 303.591 311.725 302.598 313.797 302.598C314.808 302.585 315.803 302.847 316.676 303.356L316.188 304.231C315.48 303.764 314.645 303.523 313.797 303.541C312.332 303.541 311.692 304.113 311.692 304.888C311.692 307.077 316.946 305.427 316.946 308.542C316.946 309.957 315.716 310.866 313.578 310.866C312.403 310.892 311.251 310.538 310.294 309.856Z" fill="#263238"/>
<path d="M323.328 310.227C322.85 310.606 322.255 310.808 321.644 310.799C321.324 310.834 321 310.796 320.696 310.689C320.392 310.582 320.116 310.408 319.889 310.18C319.661 309.952 319.487 309.677 319.38 309.373C319.273 309.069 319.235 308.745 319.27 308.425V303.524H317.805V302.598H319.27V300.813H320.364V302.598H322.823V303.524H320.364V308.374C320.336 308.568 320.351 308.766 320.41 308.953C320.469 309.14 320.569 309.312 320.704 309.454C320.838 309.597 321.003 309.707 321.187 309.777C321.37 309.846 321.567 309.873 321.762 309.856C322.204 309.869 322.636 309.719 322.975 309.435L323.328 310.227Z" fill="#263238"/>
<path d="M338.483 299.904V310.715H337.54L330.602 301.941V310.715H329.457V299.904H330.4L337.355 308.677V299.904H338.483Z" fill="#263238"/>
<path d="M347.982 305.68V310.732H346.904V309.469C346.6 309.922 346.181 310.286 345.689 310.522C345.198 310.759 344.652 310.861 344.108 310.816C342.273 310.816 341.145 309.856 341.145 308.442C341.145 307.027 341.953 306.151 344.294 306.151H346.904V305.663C346.904 304.265 346.112 303.507 344.597 303.507C343.613 303.494 342.657 303.835 341.902 304.467L341.397 303.642C342.357 302.893 343.549 302.506 344.765 302.548C345.192 302.498 345.625 302.545 346.032 302.684C346.438 302.822 346.809 303.05 347.117 303.35C347.425 303.65 347.662 304.014 347.812 304.417C347.961 304.82 348.019 305.252 347.982 305.68ZM346.887 308.273V306.943H344.327C342.761 306.943 342.256 307.566 342.256 308.408C342.256 309.25 343.014 309.923 344.31 309.923C344.862 309.961 345.411 309.821 345.878 309.524C346.345 309.227 346.704 308.789 346.904 308.273H346.887Z" fill="#263238"/>
<path d="M364.367 306V310.715H363.272V306.118C363.272 304.434 362.396 303.524 360.931 303.524C360.551 303.507 360.172 303.572 359.82 303.716C359.469 303.86 359.152 304.08 358.894 304.359C358.636 304.638 358.442 304.97 358.325 305.332C358.209 305.694 358.173 306.077 358.22 306.454V310.715H357.125V306.118C357.125 304.434 356.25 303.524 354.768 303.524C354.388 303.507 354.009 303.572 353.657 303.716C353.305 303.86 352.989 304.08 352.731 304.359C352.473 304.638 352.278 304.97 352.162 305.332C352.045 305.694 352.009 306.077 352.057 306.454V310.715H350.962V302.598H351.955V304.08C352.273 303.583 352.716 303.179 353.239 302.907C353.762 302.635 354.347 302.505 354.936 302.531C355.533 302.482 356.131 302.617 356.649 302.918C357.167 303.219 357.58 303.672 357.833 304.215C358.165 303.672 358.638 303.229 359.201 302.933C359.764 302.636 360.397 302.498 361.032 302.531C361.493 302.486 361.958 302.546 362.393 302.706C362.827 302.866 363.219 303.123 363.54 303.457C363.861 303.791 364.102 304.193 364.245 304.634C364.388 305.074 364.43 305.541 364.367 306Z" fill="#263238"/>
<path d="M374.454 306.993H367.718C367.742 307.389 367.843 307.777 368.017 308.134C368.191 308.49 368.433 308.809 368.73 309.072C369.028 309.335 369.374 309.537 369.749 309.665C370.124 309.794 370.522 309.847 370.918 309.822C371.385 309.837 371.85 309.75 372.281 309.567C372.711 309.384 373.097 309.109 373.41 308.761L374.016 309.469C373.433 310.078 372.682 310.502 371.859 310.688C371.036 310.873 370.177 310.812 369.388 310.512C368.599 310.212 367.916 309.686 367.425 309.001C366.933 308.315 366.654 307.5 366.623 306.656C366.596 306.12 366.678 305.584 366.866 305.081C367.054 304.578 367.343 304.119 367.716 303.732C368.089 303.345 368.536 303.039 369.032 302.832C369.528 302.626 370.061 302.523 370.598 302.531C371.134 302.52 371.666 302.621 372.162 302.827C372.657 303.033 373.104 303.34 373.474 303.728C373.845 304.116 374.131 304.576 374.314 305.08C374.497 305.584 374.573 306.121 374.538 306.656C374.471 306.757 374.454 306.875 374.454 306.993ZM367.718 306.185H373.477C373.477 305.421 373.174 304.689 372.634 304.149C372.094 303.609 371.361 303.305 370.598 303.305C369.834 303.305 369.101 303.609 368.561 304.149C368.021 304.689 367.718 305.421 367.718 306.185Z" fill="#263238"/>
</g>
<path d="M501.698 235.659H281.363V273.381H501.698V235.659Z" fill="white"/>
<g opacity="0.4">
<path d="M294.565 249.367V253.61H300.156V254.604H294.565V259.184H293.42V248.373H300.83V249.367H294.565Z" fill="#263238"/>
<path d="M302.564 248.491C302.56 248.33 302.605 248.171 302.693 248.036C302.78 247.9 302.906 247.794 303.055 247.731C303.203 247.668 303.367 247.65 303.525 247.681C303.684 247.711 303.829 247.789 303.943 247.903C304.057 248.017 304.135 248.162 304.165 248.321C304.196 248.479 304.179 248.643 304.115 248.791C304.052 248.94 303.946 249.066 303.81 249.153C303.675 249.241 303.516 249.286 303.355 249.282C303.145 249.282 302.944 249.199 302.795 249.051C302.647 248.902 302.564 248.701 302.564 248.491ZM302.799 251.068H303.894V259.184H302.799V251.068Z" fill="#263238"/>
<path d="M311.051 251V252.061H310.782C310.395 252.042 310.009 252.109 309.651 252.257C309.293 252.405 308.972 252.63 308.711 252.917C308.45 253.203 308.256 253.544 308.143 253.914C308.029 254.284 307.998 254.675 308.054 255.059V259.201H306.959V251.084H308.003V252.6C308.294 252.06 308.74 251.62 309.283 251.335C309.826 251.05 310.442 250.933 311.051 251Z" fill="#263238"/>
<path d="M311.961 258.258L312.449 257.382C313.291 257.993 314.306 258.317 315.346 258.309C316.895 258.309 317.518 257.77 317.518 256.978C317.518 254.856 312.264 256.524 312.264 253.307C312.264 251.994 313.392 251 315.464 251C316.476 250.978 317.473 251.241 318.343 251.758L317.855 252.634C317.147 252.166 316.312 251.925 315.464 251.943C313.999 251.943 313.359 252.516 313.359 253.29C313.359 255.479 318.613 253.829 318.613 256.945C318.613 258.342 317.383 259.252 315.245 259.252C314.072 259.282 312.92 258.934 311.961 258.258Z" fill="#263238"/>
<path d="M325.012 258.696C324.528 259.064 323.935 259.259 323.328 259.252C323.008 259.289 322.685 259.254 322.381 259.149C322.077 259.044 321.801 258.872 321.572 258.645C321.344 258.419 321.17 258.144 321.063 257.84C320.956 257.537 320.918 257.214 320.953 256.894V251.994H319.488V251.067H320.953V249.232H322.048V251.017H324.507V251.943H322.048V256.776C322.02 256.971 322.035 257.169 322.094 257.357C322.153 257.545 322.253 257.717 322.387 257.861C322.521 258.005 322.686 258.117 322.869 258.188C323.053 258.26 323.25 258.29 323.446 258.275C323.887 258.281 324.316 258.132 324.658 257.854L325.012 258.696Z" fill="#263238"/>
<path d="M340.168 248.373V259.184H339.225L332.287 250.411V259.184H331.142V248.373H332.085L339.04 257.147V248.373H340.168Z" fill="#263238"/>
<path d="M349.648 254.149V259.201H348.587V257.938C348.285 258.388 347.868 258.749 347.38 258.983C346.891 259.217 346.349 259.316 345.809 259.269C343.956 259.269 342.828 258.326 342.828 256.911C342.828 255.497 343.636 254.621 345.977 254.621H348.587V254.116C348.587 252.735 347.796 251.977 346.28 251.977C345.296 251.964 344.34 252.305 343.586 252.937L343.081 252.112C344.041 251.364 345.233 250.977 346.449 251.017C346.875 250.967 347.307 251.014 347.713 251.153C348.119 251.292 348.489 251.519 348.796 251.82C349.103 252.12 349.338 252.485 349.486 252.888C349.633 253.291 349.689 253.722 349.648 254.149ZM348.554 256.743V255.412H345.994C344.428 255.412 343.923 256.035 343.923 256.861C343.923 257.686 344.681 258.393 345.977 258.393C346.531 258.431 347.083 258.292 347.553 257.995C348.022 257.698 348.384 257.26 348.587 256.743H348.554Z" fill="#263238"/>
<path d="M366.034 254.469V259.184H364.939V254.587C364.939 252.903 364.063 251.994 362.598 251.994C362.218 251.976 361.839 252.042 361.487 252.186C361.136 252.33 360.819 252.549 360.561 252.828C360.303 253.107 360.109 253.44 359.992 253.802C359.876 254.163 359.84 254.547 359.887 254.924V259.184H358.792V254.587C358.792 252.903 357.917 251.994 356.435 251.994C356.055 251.976 355.676 252.042 355.324 252.186C354.972 252.33 354.656 252.549 354.398 252.828C354.14 253.107 353.945 253.44 353.829 253.802C353.712 254.163 353.677 254.547 353.724 254.924V259.184H352.629V251.067H353.639V252.6C353.957 252.103 354.4 251.699 354.923 251.427C355.446 251.155 356.031 251.025 356.62 251.051C357.217 251.002 357.815 251.137 358.333 251.438C358.851 251.739 359.264 252.192 359.516 252.735C359.846 252.19 360.318 251.745 360.882 251.448C361.446 251.151 362.08 251.014 362.716 251.051C363.171 251.01 363.629 251.071 364.057 251.23C364.485 251.389 364.872 251.641 365.19 251.969C365.508 252.296 365.749 252.691 365.895 253.124C366.041 253.556 366.088 254.016 366.034 254.469Z" fill="#263238"/>
<path d="M376.121 255.463H369.385C369.409 255.859 369.51 256.247 369.684 256.603C369.858 256.96 370.1 257.279 370.397 257.542C370.695 257.805 371.041 258.006 371.416 258.135C371.791 258.264 372.189 258.317 372.585 258.292C373.054 258.307 373.521 258.219 373.951 258.032C374.382 257.846 374.767 257.567 375.077 257.214L375.683 257.938C375.1 258.548 374.349 258.972 373.526 259.157C372.703 259.343 371.844 259.282 371.055 258.982C370.266 258.682 369.583 258.156 369.092 257.47C368.6 256.785 368.321 255.969 368.29 255.126C368.263 254.59 368.345 254.053 368.533 253.55C368.721 253.047 369.01 252.588 369.383 252.201C369.756 251.815 370.204 251.509 370.699 251.302C371.195 251.095 371.728 250.993 372.265 251C372.801 250.99 373.333 251.091 373.829 251.297C374.324 251.503 374.771 251.81 375.141 252.198C375.512 252.585 375.797 253.046 375.981 253.55C376.164 254.054 376.24 254.591 376.205 255.126C376.138 255.21 376.121 255.328 376.121 255.463ZM369.385 254.638H375.144C375.144 253.874 374.841 253.142 374.301 252.601C373.761 252.061 373.028 251.758 372.265 251.758C371.501 251.758 370.768 252.061 370.228 252.601C369.688 253.142 369.385 253.874 369.385 254.638Z" fill="#263238"/>
</g>
<path d="M198.459 556.191H196.859C196.859 553.817 198.83 498.178 208.513 488.831C218.465 479.148 230.169 488.697 230.27 488.831L229.26 490.044C228.822 489.69 218.532 481.338 209.607 490.044C200.396 498.818 198.476 555.619 198.459 556.191Z" fill="#3694C1"/>
<path d="M197.651 567.356L196.068 567.205C196.068 566.531 202.332 499.643 178.1 471.823L179.295 470.779C203.983 499.121 197.718 566.683 197.651 567.356Z" fill="#3694C1"/>
<path d="M198.425 560.216C198.223 557.05 193.558 482.752 212.183 465.575L213.261 466.754C195.192 483.358 199.957 559.374 200.008 560.098L198.425 560.216Z" fill="#3694C1"/>
<path d="M196.068 560.166C196.068 559.661 195.495 509.646 182.242 502.118C181.116 501.375 179.827 500.914 178.485 500.773C177.142 500.633 175.786 500.817 174.53 501.31C166.766 504.526 162.641 519.346 162.59 519.497L161.058 519.076C161.226 518.436 165.436 503.365 173.923 499.845C175.402 499.251 177.002 499.022 178.588 499.177C180.174 499.333 181.699 499.868 183.034 500.737C197.062 508.77 197.651 557.993 197.668 560.149L196.068 560.166Z" fill="#3694C1"/>
<path d="M201.524 560.199C201.423 558.515 199.385 520.726 210.112 506.699C212.975 502.977 216.141 501.209 219.576 501.461C227.205 501.983 233.048 512.323 233.368 512.761L231.987 513.553C231.987 513.452 226.228 503.449 219.458 503.044C216.612 502.825 213.884 504.392 211.375 507.675C201.002 521.147 203.09 559.728 203.107 560.115L201.524 560.199Z" fill="#3694C1"/>
<path d="M199.385 565.437L197.802 565.319C197.802 564.409 204.538 474.181 193.424 459.126L194.704 458.183C206.189 473.709 199.671 561.698 199.385 565.437Z" fill="#3694C1"/>
<path d="M170.841 508.821C170.841 508.821 177.712 511.364 175.674 517.342C173.637 523.32 151.879 533.171 151.879 533.171C151.879 533.171 142.769 524.835 151.138 511.279C159.508 497.723 170.656 504.543 170.841 508.821Z" fill="#3694C1"/>
<path opacity="0.2" d="M170.841 508.821C170.841 508.821 177.712 511.364 175.674 517.342C173.637 523.32 151.879 533.171 151.879 533.171C151.879 533.171 142.769 524.835 151.138 511.279C159.508 497.723 170.656 504.543 170.841 508.821Z" fill="black"/>
<path d="M200.732 497.437C200.732 497.437 193.407 497.134 192.986 503.432C192.565 509.73 208.815 527.21 208.815 527.21C208.815 527.21 220.435 523 217.942 507.254C215.45 491.509 202.551 493.547 200.732 497.437Z" fill="#3694C1"/>
<path opacity="0.2" d="M200.732 497.437C200.732 497.437 193.407 497.134 192.986 503.432C192.565 509.73 208.815 527.21 208.815 527.21C208.815 527.21 220.435 523 217.942 507.254C215.45 491.509 202.551 493.547 200.732 497.437Z" fill="black"/>
<path d="M206.929 467.226C206.929 467.226 202.046 466.704 202.433 463.74C202.82 460.776 221.412 453.114 232.375 465.424C232.375 465.424 225.352 477.481 215.215 477.65C205.077 477.818 206.929 467.226 206.929 467.226Z" fill="#3694C1"/>
<path opacity="0.2" d="M206.929 467.226C206.929 467.226 202.046 466.704 202.433 463.74C202.82 460.776 221.412 453.114 232.375 465.424C232.375 465.424 225.352 477.481 215.215 477.65C205.077 477.818 206.929 467.226 206.929 467.226Z" fill="black"/>
<path d="M197.836 460.001C197.836 460.001 202.248 462.14 203.494 459.412C204.741 456.684 193.003 440.366 177.157 445.064C177.157 445.064 176.736 459.008 185.257 464.514C193.778 470.021 197.836 460.001 197.836 460.001Z" fill="#3694C1"/>
<path opacity="0.2" d="M197.836 460.001C197.836 460.001 202.248 462.14 203.494 459.412C204.741 456.684 193.003 440.366 177.157 445.064C177.157 445.064 176.736 459.008 185.257 464.514C193.778 470.021 197.836 460.001 197.836 460.001Z" fill="black"/>
<path d="M220.94 506.429C220.94 506.429 217.572 503.701 221.209 502.371C224.847 501.041 242.68 501.428 242.866 519.093C242.866 519.093 222.085 522.545 219.525 515.809C216.966 509.073 220.94 506.429 220.94 506.429Z" fill="#3694C1"/>
<path opacity="0.2" d="M220.94 506.429C220.94 506.429 217.572 503.701 221.209 502.371C224.847 501.041 242.68 501.428 242.866 519.093C242.866 519.093 222.085 522.545 219.525 515.809C216.966 509.073 220.94 506.429 220.94 506.429Z" fill="black"/>
<path d="M178.504 466.788C178.504 466.788 181.872 464.06 178.234 462.746C174.597 461.433 156.763 461.787 156.578 479.452C156.578 479.452 177.359 482.921 179.918 476.185C182.478 469.449 178.504 466.788 178.504 466.788Z" fill="#3694C1"/>
<path opacity="0.2" d="M178.504 466.788C178.504 466.788 181.872 464.06 178.234 462.746C174.597 461.433 156.763 461.787 156.578 479.452C156.578 479.452 177.359 482.921 179.918 476.185C182.478 469.449 178.504 466.788 178.504 466.788Z" fill="black"/>
<path d="M189.551 481.018C189.551 481.018 189.854 477.65 187.176 479.014C184.499 480.378 175.22 490.347 184.852 499.862C184.852 499.862 197.836 490.246 195.495 485.245C193.154 480.243 189.551 481.018 189.551 481.018Z" fill="#3694C1"/>
<path opacity="0.2" d="M189.551 481.018C189.551 481.018 189.854 477.65 187.176 479.014C184.499 480.378 175.22 490.347 184.852 499.862C184.852 499.862 197.836 490.246 195.495 485.245C193.154 480.243 189.551 481.018 189.551 481.018Z" fill="black"/>
<path d="M223.972 485.733C223.972 485.733 221.951 483.089 224.915 482.769C227.878 482.449 241.081 485.969 237.999 499.171C237.999 499.171 221.9 497.959 221.159 492.435C220.418 486.912 223.972 485.733 223.972 485.733Z" fill="#3694C1"/>
<path opacity="0.2" d="M223.972 485.733C223.972 485.733 221.951 483.089 224.915 482.769C227.878 482.449 241.081 485.969 237.999 499.171C237.999 499.171 221.9 497.959 221.159 492.435C220.418 486.912 223.972 485.733 223.972 485.733Z" fill="black"/>
<path d="M172.037 609.136H224.09L231.011 558.515H165.116L172.037 609.136Z" fill="#263238"/>
<path opacity="0.2" d="M172.037 609.136H224.09L231.011 558.515H165.116L172.037 609.136Z" fill="white"/>
<path d="M237.544 554.406V559.223C237.544 560.768 236.93 562.25 235.837 563.343C234.745 564.435 233.263 565.049 231.717 565.049H163.768C162.223 565.049 160.741 564.435 159.648 563.343C158.555 562.25 157.941 560.768 157.941 559.223V554.406H237.544Z" fill="#263238"/>
<path d="M671.276 74.618H622.894C618.946 74.618 615.16 76.1864 612.368 78.9782C609.576 81.77 608.008 85.5564 608.008 89.5046V131.605C608.006 133.561 608.389 135.499 609.136 137.307C609.883 139.115 610.98 140.758 612.362 142.142C613.745 143.526 615.386 144.624 617.194 145.373C619.001 146.122 620.938 146.508 622.894 146.508H637.023L633.655 159.795L647.127 146.508H671.36C675.313 146.508 679.103 144.938 681.898 142.143C684.693 139.348 686.263 135.557 686.263 131.605V89.5046C686.263 87.5411 685.875 85.5971 685.121 83.7843C684.366 81.9716 683.261 80.326 681.867 78.9423C680.474 77.5586 678.821 76.4642 677.004 75.7221C675.186 74.9799 673.239 74.6047 671.276 74.618Z" fill="#3694C1"/>
<path opacity="0.7" d="M671.276 74.618H622.894C618.946 74.618 615.16 76.1864 612.368 78.9782C609.576 81.77 608.008 85.5564 608.008 89.5046V131.605C608.006 133.561 608.389 135.499 609.136 137.307C609.883 139.115 610.98 140.758 612.362 142.142C613.745 143.526 615.386 144.624 617.194 145.373C619.001 146.122 620.938 146.508 622.894 146.508H637.023L633.655 159.795L647.127 146.508H671.36C675.313 146.508 679.103 144.938 681.898 142.143C684.693 139.348 686.263 135.557 686.263 131.605V89.5046C686.263 87.5411 685.875 85.5971 685.121 83.7843C684.366 81.9716 683.261 80.326 681.867 78.9423C680.474 77.5586 678.821 76.4642 677.004 75.7221C675.186 74.9799 673.239 74.6047 671.276 74.618Z" fill="white"/>
<path d="M647.093 129.163C657.463 129.163 665.87 120.756 665.87 110.386C665.87 100.016 657.463 91.6096 647.093 91.6096C636.723 91.6096 628.316 100.016 628.316 110.386C628.316 120.756 636.723 129.163 647.093 129.163Z" fill="white"/>
<path d="M647.093 86.3723C642.343 86.3723 637.701 87.7807 633.752 90.4194C629.803 93.0581 626.725 96.8085 624.907 101.196C623.09 105.584 622.614 110.413 623.541 115.071C624.467 119.729 626.754 124.008 630.113 127.367C633.471 130.725 637.75 133.012 642.408 133.939C647.066 134.865 651.895 134.39 656.283 132.572C660.671 130.754 664.421 127.677 667.06 123.728C669.698 119.778 671.107 115.136 671.107 110.386C671.109 107.232 670.489 104.108 669.283 101.194C668.077 98.2793 666.309 95.6312 664.078 93.4009C661.848 91.1705 659.2 89.4018 656.285 88.1958C653.371 86.9897 650.247 86.3701 647.093 86.3723ZM660.717 103.212L646.251 120.254C646.046 120.501 645.788 120.698 645.497 120.832C645.205 120.966 644.888 121.033 644.567 121.029C644.247 121.031 643.93 120.963 643.639 120.829C643.348 120.695 643.09 120.499 642.883 120.254L633.469 109.157C633.271 108.937 633.118 108.68 633.02 108.4C632.923 108.121 632.883 107.824 632.903 107.529C632.922 107.233 633.001 106.945 633.135 106.68C633.268 106.416 633.454 106.181 633.68 105.99C633.906 105.799 634.169 105.655 634.452 105.568C634.734 105.48 635.032 105.451 635.327 105.481C635.621 105.51 635.907 105.599 636.167 105.742C636.426 105.885 636.654 106.078 636.837 106.311L644.567 115.421L657.349 100.366C657.733 99.9427 658.266 99.6847 658.837 99.6468C659.407 99.6088 659.97 99.7939 660.407 100.163C660.844 100.532 661.12 101.056 661.178 101.625C661.236 102.194 661.07 102.763 660.717 103.212Z" fill="#3694C1"/>
<path d="M662.89 334.375C662.89 334.375 633.571 330.67 589.147 342.795C589.147 342.795 582.007 263.411 582.849 252.499C583.691 241.586 651.439 244.786 651.439 244.786C651.439 244.786 653.123 276.563 657.535 295.727C661.947 314.891 665.18 330.687 662.89 334.375Z" fill="#3694C1"/>
<path opacity="0.2" d="M662.89 334.375C662.89 334.375 633.571 330.67 589.147 342.795C589.147 342.795 582.007 263.411 582.849 252.499C583.691 241.586 651.439 244.786 651.439 244.786C651.439 244.786 653.123 276.563 657.535 295.727C661.947 314.891 665.18 330.687 662.89 334.375Z" fill="black"/>
<path d="M567.728 597.18L579.684 600.565L582.53 581.957L584.062 572.004L572.106 568.619L570.068 581.957L567.728 597.18Z" fill="#E4897B"/>
<path d="M636.468 598.157L648.795 599.79L648.913 581.957L648.997 570.876L636.653 569.259L636.569 581.957L636.468 598.157Z" fill="#E4897B"/>
<path opacity="0.2" d="M636.654 569.259L636.569 581.957H648.913L648.997 570.876L636.654 569.259Z" fill="black"/>
<path opacity="0.2" d="M570.068 581.957H582.53L584.062 572.004L572.106 568.619L570.068 581.957Z" fill="black"/>
<path d="M514.648 259.016L502.775 255.513L504.948 269.069C504.948 269.069 515.725 271.545 516.736 265.937L514.648 259.016Z" fill="#E4897B"/>
<path d="M490.92 258.662L496.747 269.676L504.948 269.069L502.775 255.513L490.92 258.662Z" fill="#E4897B"/>
<path d="M531.033 262.485L511.532 258.124L509.764 267.588L527.463 271.899L531.033 262.485Z" fill="#E4897B"/>
<path d="M590.023 253.93L588.878 255.294C586.419 258.174 580.458 265.129 574.244 271.124C569.192 276.008 564.14 280.268 560.772 281.127C551.224 283.586 516.517 273.364 516.517 273.364L520.104 259.285C520.104 259.285 552.436 263.58 554.945 263.58C556.848 263.58 576.518 235.086 581.283 232.746L590.023 253.93Z" fill="#3694C1"/>
<path opacity="0.2" d="M588.878 255.294C586.419 258.174 580.458 265.129 574.244 271.124C575.49 261.256 579.111 252.196 583.877 246.47C584.321 245.918 584.83 245.42 585.392 244.988L588.878 255.294Z" fill="black"/>
<path d="M567.879 595.311L581.452 594.957C581.697 594.949 581.937 595.025 582.133 595.172C582.329 595.319 582.469 595.528 582.53 595.765L585.393 606.695C585.461 606.956 585.47 607.23 585.418 607.495C585.366 607.761 585.255 608.011 585.093 608.228C584.932 608.445 584.723 608.622 584.484 608.747C584.244 608.873 583.979 608.942 583.709 608.951C578.808 608.951 571.719 608.951 565.572 609.069C558.364 609.271 553.784 608.917 545.364 609.069C540.312 609.204 538.628 604.118 540.784 603.596C550.433 601.205 556.748 601.676 564.966 596.287C565.833 595.709 566.839 595.372 567.879 595.311Z" fill="#263238"/>
<path d="M566.7 597.062C564.713 597.5 561.176 598.089 559.762 596.927C559.555 596.757 559.393 596.539 559.288 596.293C559.182 596.047 559.137 595.78 559.155 595.513C559.155 595.352 559.196 595.195 559.276 595.056C559.356 594.917 559.471 594.801 559.61 594.721C561.109 593.829 566.178 596.237 566.767 596.506C566.819 596.534 566.862 596.575 566.891 596.626C566.921 596.676 566.936 596.734 566.936 596.793C566.933 596.858 566.908 596.92 566.865 596.969C566.822 597.018 566.764 597.051 566.7 597.062ZM559.964 595.193H559.863C559.807 595.225 559.76 595.272 559.727 595.328C559.695 595.384 559.678 595.448 559.677 595.513C559.663 595.687 559.691 595.862 559.759 596.023C559.826 596.184 559.931 596.327 560.065 596.439C560.856 597.096 562.911 597.163 565.639 596.624C563.669 595.799 560.924 594.839 559.997 595.193H559.964Z" fill="#3694C1"/>
<path d="M566.7 597.062H566.498C564.966 596.422 561.901 593.829 562.069 592.431C562.069 592.094 562.339 591.673 563.147 591.572C563.444 591.534 563.745 591.554 564.034 591.632C564.323 591.71 564.594 591.844 564.831 592.027C566.515 593.29 566.902 596.608 566.936 596.742C566.941 596.793 566.932 596.845 566.912 596.892C566.891 596.939 566.859 596.98 566.818 597.012L566.7 597.062ZM562.928 592.229C562.675 592.313 562.659 592.448 562.659 592.499C562.558 593.341 564.646 595.395 566.212 596.271C566.031 594.856 565.406 593.535 564.427 592.499C564.261 592.359 564.066 592.257 563.857 592.198C563.648 592.14 563.429 592.128 563.214 592.162C563.116 592.17 563.02 592.193 562.928 592.229Z" fill="#3694C1"/>
<path d="M636.956 595.311L650.529 594.957C650.776 594.949 651.019 595.024 651.218 595.171C651.416 595.317 651.56 595.527 651.624 595.766L654.47 606.695C654.542 606.957 654.553 607.231 654.503 607.498C654.452 607.765 654.341 608.017 654.179 608.234C654.017 608.452 653.807 608.629 653.565 608.754C653.324 608.878 653.058 608.946 652.786 608.951C647.886 608.951 640.796 608.951 634.633 609.069C627.442 609.271 622.845 608.918 614.425 609.069C609.373 609.204 607.689 604.118 609.844 603.596C619.493 601.205 625.792 601.676 634.009 596.288C634.886 595.704 635.904 595.366 636.956 595.311Z" fill="#263238"/>
<path d="M635.794 597.062C633.807 597.5 630.254 598.089 628.856 596.927C628.65 596.757 628.488 596.539 628.382 596.293C628.277 596.047 628.232 595.78 628.25 595.513C628.249 595.352 628.291 595.195 628.371 595.056C628.451 594.917 628.566 594.801 628.705 594.721C630.187 593.829 635.272 596.237 635.845 596.506C635.901 596.528 635.948 596.569 635.979 596.62C636.009 596.672 636.021 596.733 636.013 596.793C636.009 596.855 635.985 596.914 635.946 596.962C635.907 597.01 635.854 597.045 635.794 597.062ZM629.058 595.193H628.957C628.902 595.225 628.857 595.272 628.827 595.328C628.797 595.385 628.784 595.449 628.789 595.513C628.772 595.687 628.799 595.863 628.866 596.025C628.934 596.186 629.04 596.329 629.176 596.439C629.968 597.096 632.005 597.163 634.75 596.624C632.746 595.799 630.002 594.839 629.075 595.193H629.058Z" fill="#3694C1"/>
<path d="M635.794 597.062H635.575C634.06 596.422 630.978 593.829 631.163 592.431C631.163 592.094 631.416 591.673 632.224 591.572C632.521 591.532 632.823 591.551 633.112 591.629C633.402 591.707 633.672 591.842 633.908 592.027C635.086 593.339 635.823 594.989 636.013 596.742C636.022 596.794 636.015 596.847 635.994 596.894C635.973 596.942 635.939 596.983 635.895 597.012L635.794 597.062ZM632.005 592.229C631.77 592.313 631.753 592.448 631.753 592.498C631.635 593.34 633.74 595.395 635.306 596.271C635.113 594.86 634.49 593.542 633.521 592.498C633.354 592.36 633.16 592.258 632.951 592.2C632.742 592.142 632.523 592.129 632.308 592.162L632.005 592.229Z" fill="#3694C1"/>
<path d="M661.897 327.134C668.431 355.442 657.215 578.151 657.215 578.151H635.559L626.297 392.557L592.196 578.151L569.041 576.467C584.197 432.687 597.551 346.853 597.551 346.853V336.008L661.897 327.134Z" fill="#263238"/>
<path opacity="0.4" d="M569.041 576.467L592.196 578.151L619.039 432.047L626.297 392.557L635.559 578.151H657.215C657.215 578.151 668.431 355.442 661.897 327.134L597.517 336.008V346.853C597.517 346.853 584.18 432.687 569.041 576.467Z" fill="white"/>
<path d="M650.226 222.288C649.562 235.823 649.905 249.388 651.253 262.872C652.163 272.303 653.409 281.211 654.739 289.244C657.854 308.088 661.391 322.217 661.896 327.151L597.517 336.025C574.042 270.349 582.883 232.19 582.883 232.19C587.697 230.202 592.629 228.515 597.651 227.138C598.712 226.852 599.79 226.582 600.902 226.33C609.944 224.55 619.08 223.291 628.267 222.557C629.951 222.406 631.786 222.288 633.504 222.204C642.294 221.766 650.226 222.288 650.226 222.288Z" fill="#263238"/>
<path d="M615.771 192.734C616.243 201.743 617.203 218.65 624.697 222.945C624.697 222.945 620.032 231.819 609.945 232.729C602.316 233.402 602.821 225.875 602.821 225.875C607.233 222.591 606.189 217.017 602.821 210.719L615.771 192.734Z" fill="#E4897B"/>
<path opacity="0.2" d="M610.484 200.076L602.872 210.719C603.673 212.174 604.349 213.695 604.893 215.266C608.429 213.851 612.488 208.53 611.898 204.673C611.714 203.067 611.234 201.508 610.484 200.076Z" fill="black"/>
<path d="M582.933 174.597C581.468 179.279 582.277 188.877 588.794 185.762C595.311 182.647 585.459 166.564 582.933 174.597Z" fill="#263238"/>
<path d="M616.614 180.929C617.338 192.936 618.298 199.924 613.06 206.728C605.095 216.95 589.67 213.144 585.359 201.558C581.485 191.117 580.963 173.233 592.095 167.171C594.562 165.828 597.33 165.134 600.139 165.152C602.947 165.17 605.706 165.901 608.155 167.275C610.605 168.65 612.666 170.624 614.145 173.011C615.624 175.399 616.474 178.123 616.614 180.929Z" fill="#E4897B"/>
<path d="M608.193 174.395V160.923C608.193 160.923 622.474 159.862 621.834 167.17C629.749 171.094 626.01 183.404 615.384 189.433C609.557 184.768 610.231 173.553 610.231 173.553C609.608 173.873 608.901 174.142 608.193 174.395Z" fill="#263238"/>
<path d="M622.424 190.292C622.149 191.761 621.582 193.16 620.758 194.406C619.934 195.653 618.868 196.722 617.624 197.55C614.256 199.756 611.343 197.045 611.225 193.256C611.124 189.888 612.724 184.566 616.597 183.893C617.444 183.761 618.311 183.841 619.12 184.126C619.929 184.411 620.654 184.892 621.231 185.526C621.808 186.16 622.22 186.927 622.428 187.759C622.636 188.59 622.634 189.461 622.424 190.292Z" fill="#E4897B"/>
<path d="M598.882 186.284C598.999 187.261 598.578 188.103 597.939 188.17C597.299 188.237 596.692 187.513 596.574 186.486C596.457 185.459 596.878 184.667 597.501 184.6C598.124 184.533 598.764 185.24 598.882 186.284Z" fill="#263238"/>
<path d="M587.868 187.513C587.986 188.49 587.565 189.332 586.925 189.399C586.285 189.467 585.679 188.743 585.561 187.715C585.443 186.688 585.864 185.897 586.504 185.829C587.144 185.762 587.716 186.537 587.868 187.513Z" fill="#263238"/>
<path d="M591.421 187.597C590.57 190.609 589.307 193.488 587.666 196.152C588.392 196.525 589.189 196.741 590.005 196.784C590.821 196.828 591.636 196.699 592.398 196.405L591.421 187.597Z" fill="#DE5753"/>
<path d="M598.073 199.537C597.657 199.643 597.235 199.722 596.81 199.773C596.734 199.773 596.661 199.743 596.607 199.689C596.554 199.635 596.523 199.562 596.523 199.487C596.523 199.411 596.554 199.338 596.607 199.284C596.661 199.23 596.734 199.2 596.81 199.2C598.019 199.09 599.186 198.698 600.215 198.054C601.245 197.411 602.109 196.534 602.737 195.495C602.752 195.461 602.773 195.431 602.8 195.405C602.827 195.38 602.859 195.36 602.893 195.348C602.928 195.335 602.965 195.33 603.002 195.332C603.039 195.334 603.075 195.344 603.108 195.361C603.142 195.377 603.174 195.4 603.199 195.428C603.225 195.457 603.244 195.49 603.257 195.526C603.269 195.562 603.275 195.6 603.272 195.638C603.27 195.677 603.26 195.714 603.243 195.748C602.692 196.705 601.948 197.536 601.057 198.188C600.167 198.84 599.151 199.3 598.073 199.537Z" fill="#263238"/>
<path d="M601.845 182.36C601.743 182.384 601.637 182.381 601.537 182.351C601.437 182.322 601.346 182.267 601.273 182.192C600.785 181.657 600.18 181.244 599.504 180.984C598.829 180.724 598.103 180.624 597.383 180.693C597.308 180.71 597.231 180.712 597.156 180.698C597.082 180.684 597.01 180.655 596.947 180.612C596.884 180.57 596.83 180.514 596.789 180.45C596.748 180.386 596.721 180.314 596.709 180.238C596.694 180.164 596.695 180.088 596.71 180.014C596.725 179.94 596.754 179.87 596.796 179.807C596.838 179.744 596.893 179.691 596.956 179.649C597.019 179.608 597.09 179.579 597.164 179.565C598.073 179.457 598.995 179.567 599.853 179.886C600.711 180.205 601.481 180.724 602.098 181.4C602.153 181.452 602.197 181.515 602.227 181.584C602.257 181.654 602.272 181.729 602.272 181.805C602.272 181.88 602.257 181.955 602.227 182.025C602.197 182.094 602.153 182.157 602.098 182.209C602.026 182.277 601.94 182.329 601.845 182.36Z" fill="#263238"/>
<path d="M582.664 184.263C582.556 184.305 582.436 184.305 582.327 184.263C582.185 184.213 582.068 184.11 582.001 183.974C581.935 183.838 581.925 183.682 581.974 183.539C582.252 182.672 582.735 181.886 583.384 181.246C584.032 180.607 584.825 180.134 585.695 179.868C585.843 179.83 585.999 179.852 586.13 179.93C586.261 180.007 586.356 180.133 586.394 180.281C586.432 180.428 586.41 180.584 586.333 180.715C586.255 180.847 586.129 180.941 585.982 180.979C585.293 181.192 584.667 181.57 584.159 182.081C583.651 182.592 583.276 183.22 583.068 183.91C583.036 183.998 582.982 184.077 582.912 184.138C582.841 184.2 582.756 184.243 582.664 184.263Z" fill="#263238"/>
<path d="M614.526 179.38C614.526 179.38 606.106 176.298 602.266 171.414C602.266 171.414 594.621 173.418 593.055 176.466C592.34 175.854 591.878 174.999 591.757 174.066C591.635 173.133 591.864 172.189 592.398 171.414C592.398 171.414 586.673 172.627 585.544 176.466C584.614 176.023 583.85 175.293 583.365 174.384C582.88 173.475 582.699 172.434 582.85 171.414C582.85 171.414 580.307 172.374 579.482 176.466C579.482 176.466 573.167 163.297 594.032 159.525C592.453 158.989 590.798 158.711 589.131 158.7C589.131 158.7 603.698 152.823 615.233 158.195C626.769 163.567 624.765 173.974 614.526 179.38Z" fill="#263238"/>
<path d="M666.864 338.484L646.656 341.178C646.656 341.178 638.321 282.929 634.649 264.118V223.972L645.208 221.193L653.392 223.972C655.637 232.049 657.364 240.261 658.562 248.558C659.556 254.857 660.448 261.593 661.24 268.413C662.334 277.708 663.244 287.172 664.018 296.03C665.231 310.327 666.039 322.974 666.477 330.704C666.73 335.554 666.864 338.484 666.864 338.484Z" fill="#3694C1"/>
<path d="M634.666 264.085C634.666 264.085 636.35 235.743 645.225 221.126C645.225 221.126 645.006 216.95 643.237 216.276C641.469 215.602 634.666 219.644 634.666 219.644C634.666 219.644 630.439 216.747 629.513 218.095C628.587 219.442 626.33 228.401 634.666 264.085Z" fill="#3694C1"/>
<path opacity="0.7" d="M634.666 264.085C634.666 264.085 636.35 235.743 645.225 221.126C645.225 221.126 645.006 216.95 643.237 216.276C641.469 215.602 634.666 219.644 634.666 219.644C634.666 219.644 630.439 216.747 629.513 218.095C628.587 219.442 626.33 228.401 634.666 264.085Z" fill="white"/>
<path d="M588.727 346.247L591.034 347.931C591.034 347.931 587.666 329.155 589.047 281.666C589.047 279.376 589.198 277.17 589.282 275.065C590.966 234.884 597.231 227.576 597.702 227.138L591.876 229.125L581.317 232.762C578.134 267.032 588.727 346.247 588.727 346.247Z" fill="#3694C1"/>
<path d="M589.636 268.143C589.636 268.143 583.81 240.593 585.544 231.095C587.279 221.597 593.493 225.824 593.493 225.824C593.493 225.824 599.201 221.21 600.902 226.296C600.902 226.296 593.055 231.819 589.636 268.143Z" fill="#3694C1"/>
<path opacity="0.7" d="M589.636 268.143C589.636 268.143 583.81 240.593 585.544 231.095C587.279 221.597 593.493 225.824 593.493 225.824C593.493 225.824 599.201 221.21 600.902 226.296C600.902 226.296 593.055 231.819 589.636 268.143Z" fill="white"/>
<path opacity="0.2" d="M661.206 268.345C652.584 263.512 651.438 250.899 651.438 250.899C651.961 250.697 655.16 249.602 658.528 248.491C659.522 254.789 660.414 261.525 661.206 268.345Z" fill="black"/>
<path opacity="0.2" d="M619.039 432.047L626.297 392.557L624.899 371.659C624.899 371.659 614.947 407.898 619.039 432.047Z" fill="black"/>
<path opacity="0.2" d="M666.444 330.636C661.021 330.266 656.34 329.912 656.34 329.912L655.312 307.869C657.002 306.811 659.032 306.438 660.988 306.825C662.32 303.303 663.329 299.668 664.002 295.963C665.181 310.26 666.006 322.924 666.444 330.636Z" fill="black"/>
<path d="M668.296 295.946L657.737 312.904L666.09 317.703L676.009 302.429L668.296 295.946Z" fill="#E4897B"/>
<path d="M652.937 223.702C660.044 224.477 690.255 265.937 691.585 278.432C692.915 290.928 673.836 312.5 673.836 312.5L661.105 305.006C661.105 305.006 674.038 285.118 674.711 279.746C675.385 274.374 651.051 252.667 651.051 252.667C649.211 247.667 648.199 242.4 648.054 237.073C647.717 227.946 652.937 223.702 652.937 223.702Z" fill="#3694C1"/>
<path d="M655.296 307.886C655.296 307.886 666.157 310.21 670.536 317.047C670.536 317.047 665.989 331.276 662.739 332.826C659.489 334.375 651.439 334.375 651.439 334.375C651.439 334.375 650.917 318.545 655.296 307.886Z" fill="#3694C1"/>
</svg>
